<mxfile host="app.diagrams.net" modified="2021-03-17T19:49:15.153Z" agent="5.0 (Windows NT 10.0; Win64; x64) AppleWebKit/537.36 (KHTML, like Gecko) Chrome/89.0.4389.82 Safari/537.36" etag="zBYivzeO5m6GdExSg86v" version="14.4.8" type="github">
  <diagram id="bVwzVA2QB-TCneLjOnaE" name="Page-1">
    <mxGraphModel dx="2249" dy="762" grid="1" gridSize="10" guides="1" tooltips="1" connect="1" arrows="1" fold="1" page="1" pageScale="1" pageWidth="827" pageHeight="1169" math="0" shadow="0">
      <root>
        <mxCell id="0" />
        <mxCell id="1" parent="0" />
        <mxCell id="e41JxoP05bFK3vtWO0Bo-95" value="Kubernetes Cluster" style="rounded=1;whiteSpace=wrap;html=1;horizontal=1;verticalAlign=top;" parent="1" vertex="1">
          <mxGeometry x="20" y="1240" width="1020" height="310" as="geometry" />
        </mxCell>
        <mxCell id="e41JxoP05bFK3vtWO0Bo-96" value="" style="aspect=fixed;html=1;points=[];align=center;image;fontSize=12;image=img/lib/mscae/Kubernetes.svg;" parent="1" vertex="1">
          <mxGeometry x="515" y="1270" width="30" height="28.8" as="geometry" />
        </mxCell>
        <mxCell id="D4DUJ76G0orAwDeF6ANS-1" value="Kubernetes Cluster" style="rounded=1;whiteSpace=wrap;html=1;horizontal=1;verticalAlign=top;" parent="1" vertex="1">
          <mxGeometry x="40" y="30" width="800" height="510" as="geometry" />
        </mxCell>
        <mxCell id="D4DUJ76G0orAwDeF6ANS-2" value="Showcase namespace" style="rounded=1;whiteSpace=wrap;html=1;verticalAlign=top;fillColor=#dae8fc;strokeColor=#6c8ebf;" parent="1" vertex="1">
          <mxGeometry x="60" y="110" width="280" height="280" as="geometry" />
        </mxCell>
        <mxCell id="D4DUJ76G0orAwDeF6ANS-3" value="demo web pod" style="rounded=1;whiteSpace=wrap;html=1;verticalAlign=top;" parent="1" vertex="1">
          <mxGeometry x="80" y="150" width="120" height="60" as="geometry" />
        </mxCell>
        <mxCell id="D4DUJ76G0orAwDeF6ANS-4" value="" style="html=1;dashed=0;whitespace=wrap;fillColor=#2875E2;strokeColor=#ffffff;points=[[0.005,0.63,0],[0.1,0.2,0],[0.9,0.2,0],[0.5,0,0],[0.995,0.63,0],[0.72,0.99,0],[0.5,1,0],[0.28,0.99,0]];shape=mxgraph.kubernetes.icon;prIcon=pod;aspect=fixed;" parent="1" vertex="1">
          <mxGeometry x="125" y="170" width="30" height="28.8" as="geometry" />
        </mxCell>
        <mxCell id="D4DUJ76G0orAwDeF6ANS-5" value="" style="aspect=fixed;html=1;points=[];align=center;image;fontSize=12;image=img/lib/mscae/Kubernetes.svg;" parent="1" vertex="1">
          <mxGeometry x="425" y="60" width="30" height="28.8" as="geometry" />
        </mxCell>
        <mxCell id="D4DUJ76G0orAwDeF6ANS-6" value="demo claim pod" style="rounded=1;whiteSpace=wrap;html=1;verticalAlign=top;" parent="1" vertex="1">
          <mxGeometry x="80" y="230" width="120" height="60" as="geometry" />
        </mxCell>
        <mxCell id="D4DUJ76G0orAwDeF6ANS-7" value="" style="html=1;dashed=0;whitespace=wrap;fillColor=#2875E2;strokeColor=#ffffff;points=[[0.005,0.63,0],[0.1,0.2,0],[0.9,0.2,0],[0.5,0,0],[0.995,0.63,0],[0.72,0.99,0],[0.5,1,0],[0.28,0.99,0]];shape=mxgraph.kubernetes.icon;prIcon=pod;aspect=fixed;" parent="1" vertex="1">
          <mxGeometry x="125" y="250" width="30" height="28.8" as="geometry" />
        </mxCell>
        <mxCell id="D4DUJ76G0orAwDeF6ANS-8" value="demo payment pod" style="rounded=1;whiteSpace=wrap;html=1;verticalAlign=top;" parent="1" vertex="1">
          <mxGeometry x="210" y="150" width="120" height="60" as="geometry" />
        </mxCell>
        <mxCell id="D4DUJ76G0orAwDeF6ANS-9" value="" style="html=1;dashed=0;whitespace=wrap;fillColor=#2875E2;strokeColor=#ffffff;points=[[0.005,0.63,0],[0.1,0.2,0],[0.9,0.2,0],[0.5,0,0],[0.995,0.63,0],[0.72,0.99,0],[0.5,1,0],[0.28,0.99,0]];shape=mxgraph.kubernetes.icon;prIcon=pod;aspect=fixed;" parent="1" vertex="1">
          <mxGeometry x="255" y="170" width="30" height="28.8" as="geometry" />
        </mxCell>
        <mxCell id="D4DUJ76G0orAwDeF6ANS-10" value="&lt;font style=&quot;font-size: 10px&quot;&gt;demo payment core pod&lt;/font&gt;" style="rounded=1;whiteSpace=wrap;html=1;verticalAlign=top;" parent="1" vertex="1">
          <mxGeometry x="210" y="230" width="120" height="60" as="geometry" />
        </mxCell>
        <mxCell id="D4DUJ76G0orAwDeF6ANS-11" value="" style="html=1;dashed=0;whitespace=wrap;fillColor=#2875E2;strokeColor=#ffffff;points=[[0.005,0.63,0],[0.1,0.2,0],[0.9,0.2,0],[0.5,0,0],[0.995,0.63,0],[0.72,0.99,0],[0.5,1,0],[0.28,0.99,0]];shape=mxgraph.kubernetes.icon;prIcon=pod;aspect=fixed;" parent="1" vertex="1">
          <mxGeometry x="255" y="250" width="30" height="28.8" as="geometry" />
        </mxCell>
        <mxCell id="D4DUJ76G0orAwDeF6ANS-12" value="&lt;font style=&quot;font-size: 10px&quot;&gt;demo payment web pod&lt;/font&gt;" style="rounded=1;whiteSpace=wrap;html=1;verticalAlign=top;" parent="1" vertex="1">
          <mxGeometry x="210" y="310" width="120" height="60" as="geometry" />
        </mxCell>
        <mxCell id="D4DUJ76G0orAwDeF6ANS-13" value="" style="html=1;dashed=0;whitespace=wrap;fillColor=#2875E2;strokeColor=#ffffff;points=[[0.005,0.63,0],[0.1,0.2,0],[0.9,0.2,0],[0.5,0,0],[0.995,0.63,0],[0.72,0.99,0],[0.5,1,0],[0.28,0.99,0]];shape=mxgraph.kubernetes.icon;prIcon=pod;aspect=fixed;" parent="1" vertex="1">
          <mxGeometry x="255" y="330" width="30" height="28.8" as="geometry" />
        </mxCell>
        <mxCell id="D4DUJ76G0orAwDeF6ANS-14" value="demo calculation pod" style="rounded=1;whiteSpace=wrap;html=1;verticalAlign=top;" parent="1" vertex="1">
          <mxGeometry x="80" y="310" width="120" height="60" as="geometry" />
        </mxCell>
        <mxCell id="D4DUJ76G0orAwDeF6ANS-15" value="" style="html=1;dashed=0;whitespace=wrap;fillColor=#2875E2;strokeColor=#ffffff;points=[[0.005,0.63,0],[0.1,0.2,0],[0.9,0.2,0],[0.5,0,0],[0.995,0.63,0],[0.72,0.99,0],[0.5,1,0],[0.28,0.99,0]];shape=mxgraph.kubernetes.icon;prIcon=pod;aspect=fixed;" parent="1" vertex="1">
          <mxGeometry x="125" y="330" width="30" height="28.8" as="geometry" />
        </mxCell>
        <mxCell id="D4DUJ76G0orAwDeF6ANS-16" value="PR namespace" style="rounded=1;whiteSpace=wrap;html=1;verticalAlign=top;fillColor=#dae8fc;strokeColor=#6c8ebf;" parent="1" vertex="1">
          <mxGeometry x="370" y="110" width="200" height="120" as="geometry" />
        </mxCell>
        <mxCell id="D4DUJ76G0orAwDeF6ANS-17" value="demo web pod" style="rounded=1;whiteSpace=wrap;html=1;verticalAlign=top;" parent="1" vertex="1">
          <mxGeometry x="410" y="150" width="120" height="60" as="geometry" />
        </mxCell>
        <mxCell id="D4DUJ76G0orAwDeF6ANS-18" value="" style="html=1;dashed=0;whitespace=wrap;fillColor=#2875E2;strokeColor=#ffffff;points=[[0.005,0.63,0],[0.1,0.2,0],[0.9,0.2,0],[0.5,0,0],[0.995,0.63,0],[0.72,0.99,0],[0.5,1,0],[0.28,0.99,0]];shape=mxgraph.kubernetes.icon;prIcon=pod;aspect=fixed;" parent="1" vertex="1">
          <mxGeometry x="455" y="170" width="30" height="28.8" as="geometry" />
        </mxCell>
        <mxCell id="D4DUJ76G0orAwDeF6ANS-19" value="PR namespace" style="rounded=1;whiteSpace=wrap;html=1;verticalAlign=top;fillColor=#dae8fc;strokeColor=#6c8ebf;" parent="1" vertex="1">
          <mxGeometry x="370" y="250" width="200" height="120" as="geometry" />
        </mxCell>
        <mxCell id="D4DUJ76G0orAwDeF6ANS-20" value="demo web pod" style="rounded=1;whiteSpace=wrap;html=1;verticalAlign=top;" parent="1" vertex="1">
          <mxGeometry x="410" y="290" width="120" height="60" as="geometry" />
        </mxCell>
        <mxCell id="D4DUJ76G0orAwDeF6ANS-21" value="" style="html=1;dashed=0;whitespace=wrap;fillColor=#2875E2;strokeColor=#ffffff;points=[[0.005,0.63,0],[0.1,0.2,0],[0.9,0.2,0],[0.5,0,0],[0.995,0.63,0],[0.72,0.99,0],[0.5,1,0],[0.28,0.99,0]];shape=mxgraph.kubernetes.icon;prIcon=pod;aspect=fixed;" parent="1" vertex="1">
          <mxGeometry x="455" y="310" width="30" height="28.8" as="geometry" />
        </mxCell>
        <mxCell id="D4DUJ76G0orAwDeF6ANS-22" value="PR namespace" style="rounded=1;whiteSpace=wrap;html=1;verticalAlign=top;fillColor=#dae8fc;strokeColor=#6c8ebf;" parent="1" vertex="1">
          <mxGeometry x="370" y="390" width="200" height="120" as="geometry" />
        </mxCell>
        <mxCell id="D4DUJ76G0orAwDeF6ANS-23" value="demo claim pod" style="rounded=1;whiteSpace=wrap;html=1;verticalAlign=top;" parent="1" vertex="1">
          <mxGeometry x="410" y="430" width="120" height="60" as="geometry" />
        </mxCell>
        <mxCell id="D4DUJ76G0orAwDeF6ANS-24" value="" style="html=1;dashed=0;whitespace=wrap;fillColor=#2875E2;strokeColor=#ffffff;points=[[0.005,0.63,0],[0.1,0.2,0],[0.9,0.2,0],[0.5,0,0],[0.995,0.63,0],[0.72,0.99,0],[0.5,1,0],[0.28,0.99,0]];shape=mxgraph.kubernetes.icon;prIcon=pod;aspect=fixed;" parent="1" vertex="1">
          <mxGeometry x="455" y="450" width="30" height="28.8" as="geometry" />
        </mxCell>
        <mxCell id="D4DUJ76G0orAwDeF6ANS-25" value="NGINX namespace" style="rounded=1;whiteSpace=wrap;html=1;verticalAlign=top;fillColor=#dae8fc;strokeColor=#6c8ebf;" parent="1" vertex="1">
          <mxGeometry x="600" y="110" width="200" height="120" as="geometry" />
        </mxCell>
        <mxCell id="D4DUJ76G0orAwDeF6ANS-26" value="&lt;font style=&quot;font-size: 10px&quot;&gt;NGINX ingress controller&lt;/font&gt;" style="rounded=1;whiteSpace=wrap;html=1;verticalAlign=top;" parent="1" vertex="1">
          <mxGeometry x="640" y="150" width="120" height="60" as="geometry" />
        </mxCell>
        <mxCell id="D4DUJ76G0orAwDeF6ANS-27" value="" style="html=1;dashed=0;whitespace=wrap;fillColor=#2875E2;strokeColor=#ffffff;points=[[0.005,0.63,0],[0.1,0.2,0],[0.9,0.2,0],[0.5,0,0],[0.995,0.63,0],[0.72,0.99,0],[0.5,1,0],[0.28,0.99,0]];shape=mxgraph.kubernetes.icon;prIcon=pod;aspect=fixed;" parent="1" vertex="1">
          <mxGeometry x="685" y="170" width="30" height="28.8" as="geometry" />
        </mxCell>
        <mxCell id="D4DUJ76G0orAwDeF6ANS-35" value="Pact broker namespace" style="rounded=1;whiteSpace=wrap;html=1;verticalAlign=top;fillColor=#dae8fc;strokeColor=#6c8ebf;" parent="1" vertex="1">
          <mxGeometry x="600" y="250" width="200" height="120" as="geometry" />
        </mxCell>
        <mxCell id="D4DUJ76G0orAwDeF6ANS-36" value="Pact broker pod" style="rounded=1;whiteSpace=wrap;html=1;verticalAlign=top;" parent="1" vertex="1">
          <mxGeometry x="640" y="290" width="120" height="60" as="geometry" />
        </mxCell>
        <mxCell id="D4DUJ76G0orAwDeF6ANS-37" value="" style="html=1;dashed=0;whitespace=wrap;fillColor=#2875E2;strokeColor=#ffffff;points=[[0.005,0.63,0],[0.1,0.2,0],[0.9,0.2,0],[0.5,0,0],[0.995,0.63,0],[0.72,0.99,0],[0.5,1,0],[0.28,0.99,0]];shape=mxgraph.kubernetes.icon;prIcon=pod;aspect=fixed;" parent="1" vertex="1">
          <mxGeometry x="685" y="310" width="30" height="28.8" as="geometry" />
        </mxCell>
        <mxCell id="D4DUJ76G0orAwDeF6ANS-41" value="Pod identity namespace" style="rounded=1;whiteSpace=wrap;html=1;verticalAlign=top;fillColor=#dae8fc;strokeColor=#6c8ebf;" parent="1" vertex="1">
          <mxGeometry x="600" y="390" width="200" height="120" as="geometry" />
        </mxCell>
        <mxCell id="D4DUJ76G0orAwDeF6ANS-42" value="Pod identity pods" style="rounded=1;whiteSpace=wrap;html=1;verticalAlign=top;" parent="1" vertex="1">
          <mxGeometry x="640" y="430" width="120" height="60" as="geometry" />
        </mxCell>
        <mxCell id="D4DUJ76G0orAwDeF6ANS-43" value="" style="html=1;dashed=0;whitespace=wrap;fillColor=#2875E2;strokeColor=#ffffff;points=[[0.005,0.63,0],[0.1,0.2,0],[0.9,0.2,0],[0.5,0,0],[0.995,0.63,0],[0.72,0.99,0],[0.5,1,0],[0.28,0.99,0]];shape=mxgraph.kubernetes.icon;prIcon=pod;aspect=fixed;" parent="1" vertex="1">
          <mxGeometry x="685" y="450" width="30" height="28.8" as="geometry" />
        </mxCell>
        <mxCell id="5cPNlVaCanLQCvZLbyMY-3" value="" style="edgeStyle=orthogonalEdgeStyle;rounded=0;orthogonalLoop=1;jettySize=auto;html=1;curved=1;strokeWidth=4;" parent="1" source="5cPNlVaCanLQCvZLbyMY-1" target="5cPNlVaCanLQCvZLbyMY-2" edge="1">
          <mxGeometry relative="1" as="geometry" />
        </mxCell>
        <mxCell id="5cPNlVaCanLQCvZLbyMY-1" value="Physical Hardware" style="ellipse;whiteSpace=wrap;html=1;aspect=fixed;fillColor=#e1d5e7;strokeColor=#9673a6;" parent="1" vertex="1">
          <mxGeometry x="1090" y="198.8" width="80" height="80" as="geometry" />
        </mxCell>
        <mxCell id="5cPNlVaCanLQCvZLbyMY-5" value="" style="edgeStyle=orthogonalEdgeStyle;rounded=0;orthogonalLoop=1;jettySize=auto;html=1;curved=1;strokeWidth=4;" parent="1" source="5cPNlVaCanLQCvZLbyMY-2" target="5cPNlVaCanLQCvZLbyMY-4" edge="1">
          <mxGeometry relative="1" as="geometry" />
        </mxCell>
        <mxCell id="5cPNlVaCanLQCvZLbyMY-2" value="Virtual Machines" style="ellipse;whiteSpace=wrap;html=1;aspect=fixed;fillColor=#e1d5e7;strokeColor=#9673a6;" parent="1" vertex="1">
          <mxGeometry x="1241" y="198.8" width="80" height="80" as="geometry" />
        </mxCell>
        <mxCell id="5cPNlVaCanLQCvZLbyMY-7" value="" style="edgeStyle=orthogonalEdgeStyle;rounded=0;orthogonalLoop=1;jettySize=auto;html=1;curved=1;strokeWidth=4;" parent="1" source="5cPNlVaCanLQCvZLbyMY-4" target="5cPNlVaCanLQCvZLbyMY-6" edge="1">
          <mxGeometry relative="1" as="geometry" />
        </mxCell>
        <mxCell id="5cPNlVaCanLQCvZLbyMY-4" value="Docker" style="ellipse;whiteSpace=wrap;html=1;aspect=fixed;fillColor=#d5e8d4;strokeColor=#82b366;" parent="1" vertex="1">
          <mxGeometry x="1401" y="198.8" width="80" height="80" as="geometry" />
        </mxCell>
        <mxCell id="5cPNlVaCanLQCvZLbyMY-6" value="Kubernetes" style="ellipse;whiteSpace=wrap;html=1;aspect=fixed;fillColor=#d5e8d4;strokeColor=#82b366;" parent="1" vertex="1">
          <mxGeometry x="1561" y="198.8" width="80" height="80" as="geometry" />
        </mxCell>
        <mxCell id="5cPNlVaCanLQCvZLbyMY-10" value="" style="edgeStyle=orthogonalEdgeStyle;rounded=0;orthogonalLoop=1;jettySize=auto;html=1;curved=1;strokeWidth=4;" parent="1" source="5cPNlVaCanLQCvZLbyMY-8" target="5cPNlVaCanLQCvZLbyMY-9" edge="1">
          <mxGeometry relative="1" as="geometry" />
        </mxCell>
        <mxCell id="5cPNlVaCanLQCvZLbyMY-8" value="Monoliths" style="ellipse;whiteSpace=wrap;html=1;aspect=fixed;fillColor=#fff2cc;strokeColor=#d6b656;" parent="1" vertex="1">
          <mxGeometry x="1090" y="60" width="80" height="80" as="geometry" />
        </mxCell>
        <mxCell id="5cPNlVaCanLQCvZLbyMY-11" style="edgeStyle=orthogonalEdgeStyle;rounded=0;orthogonalLoop=1;jettySize=auto;html=1;entryX=0.5;entryY=0;entryDx=0;entryDy=0;curved=1;strokeWidth=4;" parent="1" source="5cPNlVaCanLQCvZLbyMY-9" target="5cPNlVaCanLQCvZLbyMY-4" edge="1">
          <mxGeometry relative="1" as="geometry" />
        </mxCell>
        <mxCell id="5cPNlVaCanLQCvZLbyMY-9" value="Microservices" style="ellipse;whiteSpace=wrap;html=1;aspect=fixed;fillColor=#fff2cc;strokeColor=#d6b656;" parent="1" vertex="1">
          <mxGeometry x="1240" y="60" width="80" height="80" as="geometry" />
        </mxCell>
        <mxCell id="e41JxoP05bFK3vtWO0Bo-1" value="Kubernetes Cluster" style="rounded=1;whiteSpace=wrap;html=1;horizontal=1;verticalAlign=top;" parent="1" vertex="1">
          <mxGeometry x="180" y="600" width="510" height="260" as="geometry" />
        </mxCell>
        <mxCell id="e41JxoP05bFK3vtWO0Bo-5" value="" style="aspect=fixed;html=1;points=[];align=center;image;fontSize=12;image=img/lib/mscae/Kubernetes.svg;" parent="1" vertex="1">
          <mxGeometry x="425" y="630" width="30" height="28.8" as="geometry" />
        </mxCell>
        <mxCell id="e41JxoP05bFK3vtWO0Bo-34" value="Master Node" style="rounded=1;whiteSpace=wrap;html=1;verticalAlign=top;" parent="1" vertex="1">
          <mxGeometry x="210" y="680" width="120" height="60" as="geometry" />
        </mxCell>
        <mxCell id="e41JxoP05bFK3vtWO0Bo-35" value="" style="html=1;dashed=0;whitespace=wrap;fillColor=#2875E2;strokeColor=#ffffff;points=[[0.005,0.63,0],[0.1,0.2,0],[0.9,0.2,0],[0.5,0,0],[0.995,0.63,0],[0.72,0.99,0],[0.5,1,0],[0.28,0.99,0]];shape=mxgraph.kubernetes.icon;prIcon=node;aspect=fixed;" parent="1" vertex="1">
          <mxGeometry x="255" y="700" width="30" height="28.8" as="geometry" />
        </mxCell>
        <mxCell id="e41JxoP05bFK3vtWO0Bo-36" value="Master Node" style="rounded=1;whiteSpace=wrap;html=1;verticalAlign=top;" parent="1" vertex="1">
          <mxGeometry x="380" y="680" width="120" height="60" as="geometry" />
        </mxCell>
        <mxCell id="e41JxoP05bFK3vtWO0Bo-37" value="" style="html=1;dashed=0;whitespace=wrap;fillColor=#2875E2;strokeColor=#ffffff;points=[[0.005,0.63,0],[0.1,0.2,0],[0.9,0.2,0],[0.5,0,0],[0.995,0.63,0],[0.72,0.99,0],[0.5,1,0],[0.28,0.99,0]];shape=mxgraph.kubernetes.icon;prIcon=node;aspect=fixed;" parent="1" vertex="1">
          <mxGeometry x="425" y="700" width="30" height="28.8" as="geometry" />
        </mxCell>
        <mxCell id="e41JxoP05bFK3vtWO0Bo-38" value="Master Node" style="rounded=1;whiteSpace=wrap;html=1;verticalAlign=top;" parent="1" vertex="1">
          <mxGeometry x="550" y="680" width="120" height="60" as="geometry" />
        </mxCell>
        <mxCell id="e41JxoP05bFK3vtWO0Bo-39" value="" style="html=1;dashed=0;whitespace=wrap;fillColor=#2875E2;strokeColor=#ffffff;points=[[0.005,0.63,0],[0.1,0.2,0],[0.9,0.2,0],[0.5,0,0],[0.995,0.63,0],[0.72,0.99,0],[0.5,1,0],[0.28,0.99,0]];shape=mxgraph.kubernetes.icon;prIcon=node;aspect=fixed;" parent="1" vertex="1">
          <mxGeometry x="595" y="700" width="30" height="28.8" as="geometry" />
        </mxCell>
        <mxCell id="e41JxoP05bFK3vtWO0Bo-40" value="Worker Node" style="rounded=1;whiteSpace=wrap;html=1;verticalAlign=top;" parent="1" vertex="1">
          <mxGeometry x="210" y="770" width="120" height="60" as="geometry" />
        </mxCell>
        <mxCell id="e41JxoP05bFK3vtWO0Bo-41" value="" style="html=1;dashed=0;whitespace=wrap;fillColor=#2875E2;strokeColor=#ffffff;points=[[0.005,0.63,0],[0.1,0.2,0],[0.9,0.2,0],[0.5,0,0],[0.995,0.63,0],[0.72,0.99,0],[0.5,1,0],[0.28,0.99,0]];shape=mxgraph.kubernetes.icon;prIcon=node;aspect=fixed;" parent="1" vertex="1">
          <mxGeometry x="255" y="790" width="30" height="28.8" as="geometry" />
        </mxCell>
        <mxCell id="e41JxoP05bFK3vtWO0Bo-42" value="Worker Node" style="rounded=1;whiteSpace=wrap;html=1;verticalAlign=top;" parent="1" vertex="1">
          <mxGeometry x="380" y="770" width="120" height="60" as="geometry" />
        </mxCell>
        <mxCell id="e41JxoP05bFK3vtWO0Bo-43" value="" style="html=1;dashed=0;whitespace=wrap;fillColor=#2875E2;strokeColor=#ffffff;points=[[0.005,0.63,0],[0.1,0.2,0],[0.9,0.2,0],[0.5,0,0],[0.995,0.63,0],[0.72,0.99,0],[0.5,1,0],[0.28,0.99,0]];shape=mxgraph.kubernetes.icon;prIcon=node;aspect=fixed;" parent="1" vertex="1">
          <mxGeometry x="425" y="790" width="30" height="28.8" as="geometry" />
        </mxCell>
        <mxCell id="e41JxoP05bFK3vtWO0Bo-44" value="Worker Node" style="rounded=1;whiteSpace=wrap;html=1;verticalAlign=top;" parent="1" vertex="1">
          <mxGeometry x="550" y="770" width="120" height="60" as="geometry" />
        </mxCell>
        <mxCell id="e41JxoP05bFK3vtWO0Bo-45" value="" style="html=1;dashed=0;whitespace=wrap;fillColor=#2875E2;strokeColor=#ffffff;points=[[0.005,0.63,0],[0.1,0.2,0],[0.9,0.2,0],[0.5,0,0],[0.995,0.63,0],[0.72,0.99,0],[0.5,1,0],[0.28,0.99,0]];shape=mxgraph.kubernetes.icon;prIcon=node;aspect=fixed;" parent="1" vertex="1">
          <mxGeometry x="595" y="790" width="30" height="28.8" as="geometry" />
        </mxCell>
        <mxCell id="e41JxoP05bFK3vtWO0Bo-46" value="Worker Node" style="rounded=1;whiteSpace=wrap;html=1;horizontal=1;verticalAlign=top;" parent="1" vertex="1">
          <mxGeometry x="190" y="900" width="495" height="300" as="geometry" />
        </mxCell>
        <mxCell id="e41JxoP05bFK3vtWO0Bo-48" value="Namespace" style="rounded=1;whiteSpace=wrap;html=1;verticalAlign=top;" parent="1" vertex="1">
          <mxGeometry x="205" y="980" width="225" height="210" as="geometry" />
        </mxCell>
        <mxCell id="e41JxoP05bFK3vtWO0Bo-60" value="" style="html=1;dashed=0;whitespace=wrap;fillColor=#2875E2;strokeColor=#ffffff;points=[[0.005,0.63,0],[0.1,0.2,0],[0.9,0.2,0],[0.5,0,0],[0.995,0.63,0],[0.72,0.99,0],[0.5,1,0],[0.28,0.99,0]];shape=mxgraph.kubernetes.icon;prIcon=node;aspect=fixed;" parent="1" vertex="1">
          <mxGeometry x="425" y="930" width="30" height="28.8" as="geometry" />
        </mxCell>
        <mxCell id="e41JxoP05bFK3vtWO0Bo-61" value="" style="html=1;dashed=0;whitespace=wrap;fillColor=#2875E2;strokeColor=#ffffff;points=[[0.005,0.63,0],[0.1,0.2,0],[0.9,0.2,0],[0.5,0,0],[0.995,0.63,0],[0.72,0.99,0],[0.5,1,0],[0.28,0.99,0]];shape=mxgraph.kubernetes.icon;prIcon=ns;aspect=fixed;" parent="1" vertex="1">
          <mxGeometry x="302.5" y="1000" width="30" height="28.8" as="geometry" />
        </mxCell>
        <mxCell id="e41JxoP05bFK3vtWO0Bo-62" value="Pod" style="rounded=1;whiteSpace=wrap;html=1;verticalAlign=top;" parent="1" vertex="1">
          <mxGeometry x="255" y="1040" width="120" height="60" as="geometry" />
        </mxCell>
        <mxCell id="e41JxoP05bFK3vtWO0Bo-63" value="" style="html=1;dashed=0;whitespace=wrap;fillColor=#2875E2;strokeColor=#ffffff;points=[[0.005,0.63,0],[0.1,0.2,0],[0.9,0.2,0],[0.5,0,0],[0.995,0.63,0],[0.72,0.99,0],[0.5,1,0],[0.28,0.99,0]];shape=mxgraph.kubernetes.icon;prIcon=pod;aspect=fixed;" parent="1" vertex="1">
          <mxGeometry x="302.5" y="1060" width="30" height="28.8" as="geometry" />
        </mxCell>
        <mxCell id="e41JxoP05bFK3vtWO0Bo-64" value="Pod" style="rounded=1;whiteSpace=wrap;html=1;verticalAlign=top;" parent="1" vertex="1">
          <mxGeometry x="255" y="1110" width="120" height="60" as="geometry" />
        </mxCell>
        <mxCell id="e41JxoP05bFK3vtWO0Bo-65" value="" style="html=1;dashed=0;whitespace=wrap;fillColor=#2875E2;strokeColor=#ffffff;points=[[0.005,0.63,0],[0.1,0.2,0],[0.9,0.2,0],[0.5,0,0],[0.995,0.63,0],[0.72,0.99,0],[0.5,1,0],[0.28,0.99,0]];shape=mxgraph.kubernetes.icon;prIcon=pod;aspect=fixed;" parent="1" vertex="1">
          <mxGeometry x="302.5" y="1130" width="30" height="28.8" as="geometry" />
        </mxCell>
        <mxCell id="e41JxoP05bFK3vtWO0Bo-66" value="Namespace" style="rounded=1;whiteSpace=wrap;html=1;verticalAlign=top;" parent="1" vertex="1">
          <mxGeometry x="445" y="980" width="225" height="210" as="geometry" />
        </mxCell>
        <mxCell id="e41JxoP05bFK3vtWO0Bo-67" value="" style="html=1;dashed=0;whitespace=wrap;fillColor=#2875E2;strokeColor=#ffffff;points=[[0.005,0.63,0],[0.1,0.2,0],[0.9,0.2,0],[0.5,0,0],[0.995,0.63,0],[0.72,0.99,0],[0.5,1,0],[0.28,0.99,0]];shape=mxgraph.kubernetes.icon;prIcon=ns;aspect=fixed;" parent="1" vertex="1">
          <mxGeometry x="542.5" y="1000" width="30" height="28.8" as="geometry" />
        </mxCell>
        <mxCell id="e41JxoP05bFK3vtWO0Bo-68" value="Pod" style="rounded=1;whiteSpace=wrap;html=1;verticalAlign=top;" parent="1" vertex="1">
          <mxGeometry x="495" y="1040" width="120" height="60" as="geometry" />
        </mxCell>
        <mxCell id="e41JxoP05bFK3vtWO0Bo-69" value="" style="html=1;dashed=0;whitespace=wrap;fillColor=#2875E2;strokeColor=#ffffff;points=[[0.005,0.63,0],[0.1,0.2,0],[0.9,0.2,0],[0.5,0,0],[0.995,0.63,0],[0.72,0.99,0],[0.5,1,0],[0.28,0.99,0]];shape=mxgraph.kubernetes.icon;prIcon=pod;aspect=fixed;" parent="1" vertex="1">
          <mxGeometry x="542.5" y="1060" width="30" height="28.8" as="geometry" />
        </mxCell>
        <mxCell id="e41JxoP05bFK3vtWO0Bo-70" value="Pod" style="rounded=1;whiteSpace=wrap;html=1;verticalAlign=top;" parent="1" vertex="1">
          <mxGeometry x="495" y="1110" width="120" height="60" as="geometry" />
        </mxCell>
        <mxCell id="e41JxoP05bFK3vtWO0Bo-71" value="" style="html=1;dashed=0;whitespace=wrap;fillColor=#2875E2;strokeColor=#ffffff;points=[[0.005,0.63,0],[0.1,0.2,0],[0.9,0.2,0],[0.5,0,0],[0.995,0.63,0],[0.72,0.99,0],[0.5,1,0],[0.28,0.99,0]];shape=mxgraph.kubernetes.icon;prIcon=pod;aspect=fixed;" parent="1" vertex="1">
          <mxGeometry x="542.5" y="1130" width="30" height="28.8" as="geometry" />
        </mxCell>
        <mxCell id="e41JxoP05bFK3vtWO0Bo-72" value="Namespace" style="rounded=1;whiteSpace=wrap;html=1;horizontal=1;verticalAlign=top;" parent="1" vertex="1">
          <mxGeometry x="200" y="1310" width="830" height="230" as="geometry" />
        </mxCell>
        <mxCell id="e41JxoP05bFK3vtWO0Bo-74" value="" style="html=1;dashed=0;whitespace=wrap;fillColor=#2875E2;strokeColor=#ffffff;points=[[0.005,0.63,0],[0.1,0.2,0],[0.9,0.2,0],[0.5,0,0],[0.995,0.63,0],[0.72,0.99,0],[0.5,1,0],[0.28,0.99,0]];shape=mxgraph.kubernetes.icon;prIcon=ns;aspect=fixed;" parent="1" vertex="1">
          <mxGeometry x="597.5" y="1340" width="30" height="28.8" as="geometry" />
        </mxCell>
        <mxCell id="e41JxoP05bFK3vtWO0Bo-75" value="Pod" style="rounded=1;whiteSpace=wrap;html=1;verticalAlign=top;" parent="1" vertex="1">
          <mxGeometry x="547.5" y="1400" width="120" height="60" as="geometry" />
        </mxCell>
        <mxCell id="e41JxoP05bFK3vtWO0Bo-76" value="" style="html=1;dashed=0;whitespace=wrap;fillColor=#2875E2;strokeColor=#ffffff;points=[[0.005,0.63,0],[0.1,0.2,0],[0.9,0.2,0],[0.5,0,0],[0.995,0.63,0],[0.72,0.99,0],[0.5,1,0],[0.28,0.99,0]];shape=mxgraph.kubernetes.icon;prIcon=pod;aspect=fixed;" parent="1" vertex="1">
          <mxGeometry x="595" y="1420" width="30" height="28.8" as="geometry" />
        </mxCell>
        <mxCell id="e41JxoP05bFK3vtWO0Bo-81" style="edgeStyle=orthogonalEdgeStyle;rounded=0;orthogonalLoop=1;jettySize=auto;html=1;strokeWidth=2;" parent="1" source="e41JxoP05bFK3vtWO0Bo-77" target="e41JxoP05bFK3vtWO0Bo-75" edge="1">
          <mxGeometry relative="1" as="geometry" />
        </mxCell>
        <mxCell id="e41JxoP05bFK3vtWO0Bo-82" style="edgeStyle=orthogonalEdgeStyle;rounded=0;orthogonalLoop=1;jettySize=auto;html=1;entryX=0;entryY=0.5;entryDx=0;entryDy=0;strokeWidth=2;curved=1;" parent="1" source="e41JxoP05bFK3vtWO0Bo-77" target="e41JxoP05bFK3vtWO0Bo-78" edge="1">
          <mxGeometry relative="1" as="geometry" />
        </mxCell>
        <mxCell id="e41JxoP05bFK3vtWO0Bo-77" value="Service" style="rounded=1;whiteSpace=wrap;html=1;verticalAlign=top;" parent="1" vertex="1">
          <mxGeometry x="367.5" y="1400" width="120" height="60" as="geometry" />
        </mxCell>
        <mxCell id="e41JxoP05bFK3vtWO0Bo-78" value="Pod" style="rounded=1;whiteSpace=wrap;html=1;verticalAlign=top;" parent="1" vertex="1">
          <mxGeometry x="550" y="1470" width="120" height="60" as="geometry" />
        </mxCell>
        <mxCell id="e41JxoP05bFK3vtWO0Bo-79" value="" style="html=1;dashed=0;whitespace=wrap;fillColor=#2875E2;strokeColor=#ffffff;points=[[0.005,0.63,0],[0.1,0.2,0],[0.9,0.2,0],[0.5,0,0],[0.995,0.63,0],[0.72,0.99,0],[0.5,1,0],[0.28,0.99,0]];shape=mxgraph.kubernetes.icon;prIcon=pod;aspect=fixed;" parent="1" vertex="1">
          <mxGeometry x="597.5" y="1490" width="30" height="28.8" as="geometry" />
        </mxCell>
        <mxCell id="e41JxoP05bFK3vtWO0Bo-80" value="" style="html=1;dashed=0;whitespace=wrap;fillColor=#2875E2;strokeColor=#ffffff;points=[[0.005,0.63,0],[0.1,0.2,0],[0.9,0.2,0],[0.5,0,0],[0.995,0.63,0],[0.72,0.99,0],[0.5,1,0],[0.28,0.99,0]];shape=mxgraph.kubernetes.icon;prIcon=svc;aspect=fixed;" parent="1" vertex="1">
          <mxGeometry x="412.5" y="1420" width="30" height="28.8" as="geometry" />
        </mxCell>
        <mxCell id="e41JxoP05bFK3vtWO0Bo-85" value="" style="edgeStyle=orthogonalEdgeStyle;curved=1;rounded=0;orthogonalLoop=1;jettySize=auto;html=1;strokeWidth=2;entryX=0;entryY=0.5;entryDx=0;entryDy=0;" parent="1" source="e41JxoP05bFK3vtWO0Bo-83" target="e41JxoP05bFK3vtWO0Bo-77" edge="1">
          <mxGeometry relative="1" as="geometry" />
        </mxCell>
        <mxCell id="e41JxoP05bFK3vtWO0Bo-83" value="Ingress" style="rounded=1;whiteSpace=wrap;html=1;verticalAlign=top;" parent="1" vertex="1">
          <mxGeometry x="217.5" y="1400" width="120" height="60" as="geometry" />
        </mxCell>
        <mxCell id="e41JxoP05bFK3vtWO0Bo-84" value="" style="html=1;dashed=0;whitespace=wrap;fillColor=#2875E2;strokeColor=#ffffff;points=[[0.005,0.63,0],[0.1,0.2,0],[0.9,0.2,0],[0.5,0,0],[0.995,0.63,0],[0.72,0.99,0],[0.5,1,0],[0.28,0.99,0]];shape=mxgraph.kubernetes.icon;prIcon=ing;aspect=fixed;" parent="1" vertex="1">
          <mxGeometry x="262.5" y="1420" width="30" height="28.8" as="geometry" />
        </mxCell>
        <mxCell id="e41JxoP05bFK3vtWO0Bo-86" value="Namespace" style="rounded=1;whiteSpace=wrap;html=1;horizontal=1;verticalAlign=top;" parent="1" vertex="1">
          <mxGeometry x="30" y="1310" width="150" height="230" as="geometry" />
        </mxCell>
        <mxCell id="e41JxoP05bFK3vtWO0Bo-87" value="" style="html=1;dashed=0;whitespace=wrap;fillColor=#2875E2;strokeColor=#ffffff;points=[[0.005,0.63,0],[0.1,0.2,0],[0.9,0.2,0],[0.5,0,0],[0.995,0.63,0],[0.72,0.99,0],[0.5,1,0],[0.28,0.99,0]];shape=mxgraph.kubernetes.icon;prIcon=ns;aspect=fixed;" parent="1" vertex="1">
          <mxGeometry x="92.5" y="1340" width="30" height="28.8" as="geometry" />
        </mxCell>
        <mxCell id="e41JxoP05bFK3vtWO0Bo-90" style="edgeStyle=orthogonalEdgeStyle;curved=1;rounded=0;orthogonalLoop=1;jettySize=auto;html=1;entryX=0;entryY=0.5;entryDx=0;entryDy=0;strokeWidth=2;" parent="1" source="e41JxoP05bFK3vtWO0Bo-88" target="e41JxoP05bFK3vtWO0Bo-83" edge="1">
          <mxGeometry relative="1" as="geometry" />
        </mxCell>
        <mxCell id="e41JxoP05bFK3vtWO0Bo-88" value="Ingress Controller" style="rounded=1;whiteSpace=wrap;html=1;verticalAlign=top;" parent="1" vertex="1">
          <mxGeometry x="45" y="1400" width="120" height="60" as="geometry" />
        </mxCell>
        <mxCell id="e41JxoP05bFK3vtWO0Bo-89" value="" style="html=1;dashed=0;whitespace=wrap;fillColor=#2875E2;strokeColor=#ffffff;points=[[0.005,0.63,0],[0.1,0.2,0],[0.9,0.2,0],[0.5,0,0],[0.995,0.63,0],[0.72,0.99,0],[0.5,1,0],[0.28,0.99,0]];shape=mxgraph.kubernetes.icon;prIcon=pod;aspect=fixed;" parent="1" vertex="1">
          <mxGeometry x="87.5" y="1420" width="30" height="28.8" as="geometry" />
        </mxCell>
        <mxCell id="e41JxoP05bFK3vtWO0Bo-94" style="edgeStyle=orthogonalEdgeStyle;curved=1;rounded=0;orthogonalLoop=1;jettySize=auto;html=1;strokeWidth=2;" parent="1" source="e41JxoP05bFK3vtWO0Bo-91" target="e41JxoP05bFK3vtWO0Bo-92" edge="1">
          <mxGeometry relative="1" as="geometry" />
        </mxCell>
        <mxCell id="e41JxoP05bFK3vtWO0Bo-91" value="User" style="shape=umlActor;verticalLabelPosition=bottom;verticalAlign=top;html=1;outlineConnect=0;" parent="1" vertex="1">
          <mxGeometry x="-110" y="1400" width="30" height="60" as="geometry" />
        </mxCell>
        <mxCell id="e41JxoP05bFK3vtWO0Bo-93" value="" style="edgeStyle=orthogonalEdgeStyle;curved=1;rounded=0;orthogonalLoop=1;jettySize=auto;html=1;strokeWidth=2;entryX=0;entryY=0.5;entryDx=0;entryDy=0;" parent="1" source="e41JxoP05bFK3vtWO0Bo-92" target="e41JxoP05bFK3vtWO0Bo-88" edge="1">
          <mxGeometry relative="1" as="geometry" />
        </mxCell>
        <mxCell id="e41JxoP05bFK3vtWO0Bo-92" value="Browser" style="verticalLabelPosition=bottom;aspect=fixed;html=1;verticalAlign=top;strokeColor=none;align=center;outlineConnect=0;shape=mxgraph.citrix.browser;" parent="1" vertex="1">
          <mxGeometry x="-28.14" y="1413.75" width="21.29" height="32.5" as="geometry" />
        </mxCell>
        <mxCell id="e41JxoP05bFK3vtWO0Bo-102" style="edgeStyle=orthogonalEdgeStyle;curved=1;rounded=0;orthogonalLoop=1;jettySize=auto;html=1;strokeWidth=2;" parent="1" source="e41JxoP05bFK3vtWO0Bo-99" target="e41JxoP05bFK3vtWO0Bo-75" edge="1">
          <mxGeometry relative="1" as="geometry" />
        </mxCell>
        <mxCell id="e41JxoP05bFK3vtWO0Bo-103" style="edgeStyle=orthogonalEdgeStyle;curved=1;rounded=0;orthogonalLoop=1;jettySize=auto;html=1;entryX=1;entryY=0.5;entryDx=0;entryDy=0;strokeWidth=2;" parent="1" source="e41JxoP05bFK3vtWO0Bo-99" target="e41JxoP05bFK3vtWO0Bo-78" edge="1">
          <mxGeometry relative="1" as="geometry" />
        </mxCell>
        <mxCell id="e41JxoP05bFK3vtWO0Bo-99" value="ReplicaSet" style="rounded=1;whiteSpace=wrap;html=1;verticalAlign=top;" parent="1" vertex="1">
          <mxGeometry x="730" y="1400" width="120" height="60" as="geometry" />
        </mxCell>
        <mxCell id="e41JxoP05bFK3vtWO0Bo-104" style="edgeStyle=orthogonalEdgeStyle;curved=1;rounded=0;orthogonalLoop=1;jettySize=auto;html=1;entryX=1;entryY=0.5;entryDx=0;entryDy=0;strokeWidth=2;" parent="1" source="e41JxoP05bFK3vtWO0Bo-100" target="e41JxoP05bFK3vtWO0Bo-99" edge="1">
          <mxGeometry relative="1" as="geometry" />
        </mxCell>
        <mxCell id="e41JxoP05bFK3vtWO0Bo-100" value="Deployment" style="rounded=1;whiteSpace=wrap;html=1;verticalAlign=top;" parent="1" vertex="1">
          <mxGeometry x="900" y="1400" width="120" height="60" as="geometry" />
        </mxCell>
        <mxCell id="e41JxoP05bFK3vtWO0Bo-105" value="" style="html=1;dashed=0;whitespace=wrap;fillColor=#2875E2;strokeColor=#ffffff;points=[[0.005,0.63,0],[0.1,0.2,0],[0.9,0.2,0],[0.5,0,0],[0.995,0.63,0],[0.72,0.99,0],[0.5,1,0],[0.28,0.99,0]];shape=mxgraph.kubernetes.icon;prIcon=rs;aspect=fixed;" parent="1" vertex="1">
          <mxGeometry x="775" y="1420" width="30" height="28.8" as="geometry" />
        </mxCell>
        <mxCell id="e41JxoP05bFK3vtWO0Bo-106" value="" style="html=1;dashed=0;whitespace=wrap;fillColor=#2875E2;strokeColor=#ffffff;points=[[0.005,0.63,0],[0.1,0.2,0],[0.9,0.2,0],[0.5,0,0],[0.995,0.63,0],[0.72,0.99,0],[0.5,1,0],[0.28,0.99,0]];shape=mxgraph.kubernetes.icon;prIcon=deploy;aspect=fixed;" parent="1" vertex="1">
          <mxGeometry x="945" y="1420" width="30" height="28.8" as="geometry" />
        </mxCell>
        <mxCell id="fCQ0ywLXfBRmuLGaXaGh-1" value="Kubernetes Cluster" style="rounded=1;whiteSpace=wrap;html=1;horizontal=1;verticalAlign=top;" parent="1" vertex="1">
          <mxGeometry x="1000" y="380" width="700" height="620" as="geometry" />
        </mxCell>
        <mxCell id="fCQ0ywLXfBRmuLGaXaGh-5" value="" style="aspect=fixed;html=1;points=[];align=center;image;fontSize=12;image=img/lib/mscae/Kubernetes.svg;" parent="1" vertex="1">
          <mxGeometry x="1335" y="410" width="30" height="28.8" as="geometry" />
        </mxCell>
        <mxCell id="fCQ0ywLXfBRmuLGaXaGh-32" value="Priority Class (Low)" style="rounded=1;whiteSpace=wrap;html=1;verticalAlign=top;" parent="1" vertex="1">
          <mxGeometry x="1020" y="450" width="120" height="60" as="geometry" />
        </mxCell>
        <mxCell id="fCQ0ywLXfBRmuLGaXaGh-34" value="" style="aspect=fixed;html=1;points=[];align=center;image;fontSize=12;image=img/lib/mscae/Kubernetes.svg;" parent="1" vertex="1">
          <mxGeometry x="1065" y="475.8" width="30" height="28.8" as="geometry" />
        </mxCell>
        <mxCell id="fCQ0ywLXfBRmuLGaXaGh-35" value="&lt;font style=&quot;font-size: 11px&quot;&gt;Priority Class (Default)&lt;/font&gt;" style="rounded=1;whiteSpace=wrap;html=1;verticalAlign=top;" parent="1" vertex="1">
          <mxGeometry x="1020" y="525" width="120" height="60" as="geometry" />
        </mxCell>
        <mxCell id="fCQ0ywLXfBRmuLGaXaGh-36" value="" style="aspect=fixed;html=1;points=[];align=center;image;fontSize=12;image=img/lib/mscae/Kubernetes.svg;" parent="1" vertex="1">
          <mxGeometry x="1065" y="550.8" width="30" height="28.8" as="geometry" />
        </mxCell>
        <mxCell id="fCQ0ywLXfBRmuLGaXaGh-37" value="Priority Class (High)" style="rounded=1;whiteSpace=wrap;html=1;verticalAlign=top;" parent="1" vertex="1">
          <mxGeometry x="1020" y="598.8" width="120" height="60" as="geometry" />
        </mxCell>
        <mxCell id="fCQ0ywLXfBRmuLGaXaGh-38" value="" style="aspect=fixed;html=1;points=[];align=center;image;fontSize=12;image=img/lib/mscae/Kubernetes.svg;" parent="1" vertex="1">
          <mxGeometry x="1065" y="624.6" width="30" height="28.8" as="geometry" />
        </mxCell>
        <mxCell id="fCQ0ywLXfBRmuLGaXaGh-39" value="Service 1 Namespace" style="rounded=1;whiteSpace=wrap;html=1;verticalAlign=top;" parent="1" vertex="1">
          <mxGeometry x="1360" y="451.2" width="140" height="240" as="geometry" />
        </mxCell>
        <mxCell id="fCQ0ywLXfBRmuLGaXaGh-40" value="" style="html=1;dashed=0;whitespace=wrap;fillColor=#2875E2;strokeColor=#ffffff;points=[[0.005,0.63,0],[0.1,0.2,0],[0.9,0.2,0],[0.5,0,0],[0.995,0.63,0],[0.72,0.99,0],[0.5,1,0],[0.28,0.99,0]];shape=mxgraph.kubernetes.icon;prIcon=ns;aspect=fixed;" parent="1" vertex="1">
          <mxGeometry x="1411" y="478.2" width="30" height="28.8" as="geometry" />
        </mxCell>
        <mxCell id="fCQ0ywLXfBRmuLGaXaGh-41" value="Resource Quota" style="rounded=1;whiteSpace=wrap;html=1;verticalAlign=top;" parent="1" vertex="1">
          <mxGeometry x="1371" y="512.4" width="120" height="60" as="geometry" />
        </mxCell>
        <mxCell id="fCQ0ywLXfBRmuLGaXaGh-42" value="NGINX Namespace" style="rounded=1;whiteSpace=wrap;html=1;verticalAlign=top;" parent="1" vertex="1">
          <mxGeometry x="1160" y="450" width="150" height="170" as="geometry" />
        </mxCell>
        <mxCell id="fCQ0ywLXfBRmuLGaXaGh-43" value="NGINX Ingress Controller resources" style="rounded=1;whiteSpace=wrap;html=1;verticalAlign=top;" parent="1" vertex="1">
          <mxGeometry x="1175" y="511.2" width="120" height="98.8" as="geometry" />
        </mxCell>
        <mxCell id="fCQ0ywLXfBRmuLGaXaGh-44" value="" style="html=1;dashed=0;whitespace=wrap;fillColor=#2875E2;strokeColor=#ffffff;points=[[0.005,0.63,0],[0.1,0.2,0],[0.9,0.2,0],[0.5,0,0],[0.995,0.63,0],[0.72,0.99,0],[0.5,1,0],[0.28,0.99,0]];shape=mxgraph.kubernetes.icon;prIcon=ns;aspect=fixed;" parent="1" vertex="1">
          <mxGeometry x="1220" y="475.8" width="30" height="28.8" as="geometry" />
        </mxCell>
        <mxCell id="fCQ0ywLXfBRmuLGaXaGh-45" value="" style="html=1;dashed=0;whitespace=wrap;fillColor=#2875E2;strokeColor=#ffffff;points=[[0.005,0.63,0],[0.1,0.2,0],[0.9,0.2,0],[0.5,0,0],[0.995,0.63,0],[0.72,0.99,0],[0.5,1,0],[0.28,0.99,0]];shape=mxgraph.kubernetes.icon;prIcon=ing;aspect=fixed;" parent="1" vertex="1">
          <mxGeometry x="1180" y="565.6" width="30" height="28.8" as="geometry" />
        </mxCell>
        <mxCell id="fCQ0ywLXfBRmuLGaXaGh-46" value="" style="html=1;dashed=0;whitespace=wrap;fillColor=#2875E2;strokeColor=#ffffff;points=[[0.005,0.63,0],[0.1,0.2,0],[0.9,0.2,0],[0.5,0,0],[0.995,0.63,0],[0.72,0.99,0],[0.5,1,0],[0.28,0.99,0]];shape=mxgraph.kubernetes.icon;prIcon=pod;aspect=fixed;" parent="1" vertex="1">
          <mxGeometry x="1260" y="565.6" width="30" height="28.8" as="geometry" />
        </mxCell>
        <mxCell id="fCQ0ywLXfBRmuLGaXaGh-47" value="" style="html=1;dashed=0;whitespace=wrap;fillColor=#2875E2;strokeColor=#ffffff;points=[[0.005,0.63,0],[0.1,0.2,0],[0.9,0.2,0],[0.5,0,0],[0.995,0.63,0],[0.72,0.99,0],[0.5,1,0],[0.28,0.99,0]];shape=mxgraph.kubernetes.icon;prIcon=svc;aspect=fixed;" parent="1" vertex="1">
          <mxGeometry x="1220" y="565.6" width="30" height="28.8" as="geometry" />
        </mxCell>
        <mxCell id="fCQ0ywLXfBRmuLGaXaGh-48" value="Pod Identity Namespace" style="rounded=1;whiteSpace=wrap;html=1;verticalAlign=top;" parent="1" vertex="1">
          <mxGeometry x="1160" y="630" width="150" height="170" as="geometry" />
        </mxCell>
        <mxCell id="fCQ0ywLXfBRmuLGaXaGh-49" value="Pod identity resources" style="rounded=1;whiteSpace=wrap;html=1;verticalAlign=top;" parent="1" vertex="1">
          <mxGeometry x="1175" y="691.2" width="120" height="98.8" as="geometry" />
        </mxCell>
        <mxCell id="fCQ0ywLXfBRmuLGaXaGh-50" value="" style="html=1;dashed=0;whitespace=wrap;fillColor=#2875E2;strokeColor=#ffffff;points=[[0.005,0.63,0],[0.1,0.2,0],[0.9,0.2,0],[0.5,0,0],[0.995,0.63,0],[0.72,0.99,0],[0.5,1,0],[0.28,0.99,0]];shape=mxgraph.kubernetes.icon;prIcon=ns;aspect=fixed;" parent="1" vertex="1">
          <mxGeometry x="1220" y="655.8" width="30" height="28.8" as="geometry" />
        </mxCell>
        <mxCell id="fCQ0ywLXfBRmuLGaXaGh-51" value="" style="html=1;dashed=0;whitespace=wrap;fillColor=#2875E2;strokeColor=#ffffff;points=[[0.005,0.63,0],[0.1,0.2,0],[0.9,0.2,0],[0.5,0,0],[0.995,0.63,0],[0.72,0.99,0],[0.5,1,0],[0.28,0.99,0]];shape=mxgraph.kubernetes.icon;prIcon=ing;aspect=fixed;" parent="1" vertex="1">
          <mxGeometry x="1180" y="745.6" width="30" height="28.8" as="geometry" />
        </mxCell>
        <mxCell id="fCQ0ywLXfBRmuLGaXaGh-52" value="" style="html=1;dashed=0;whitespace=wrap;fillColor=#2875E2;strokeColor=#ffffff;points=[[0.005,0.63,0],[0.1,0.2,0],[0.9,0.2,0],[0.5,0,0],[0.995,0.63,0],[0.72,0.99,0],[0.5,1,0],[0.28,0.99,0]];shape=mxgraph.kubernetes.icon;prIcon=pod;aspect=fixed;" parent="1" vertex="1">
          <mxGeometry x="1260" y="745.6" width="30" height="28.8" as="geometry" />
        </mxCell>
        <mxCell id="fCQ0ywLXfBRmuLGaXaGh-53" value="" style="html=1;dashed=0;whitespace=wrap;fillColor=#2875E2;strokeColor=#ffffff;points=[[0.005,0.63,0],[0.1,0.2,0],[0.9,0.2,0],[0.5,0,0],[0.995,0.63,0],[0.72,0.99,0],[0.5,1,0],[0.28,0.99,0]];shape=mxgraph.kubernetes.icon;prIcon=svc;aspect=fixed;" parent="1" vertex="1">
          <mxGeometry x="1220" y="745.6" width="30" height="28.8" as="geometry" />
        </mxCell>
        <mxCell id="fCQ0ywLXfBRmuLGaXaGh-54" value="Linkerd Namespace" style="rounded=1;whiteSpace=wrap;html=1;verticalAlign=top;" parent="1" vertex="1">
          <mxGeometry x="1160" y="818.8" width="150" height="170" as="geometry" />
        </mxCell>
        <mxCell id="fCQ0ywLXfBRmuLGaXaGh-55" value="Linkerd resources" style="rounded=1;whiteSpace=wrap;html=1;verticalAlign=top;" parent="1" vertex="1">
          <mxGeometry x="1175" y="880" width="120" height="98.8" as="geometry" />
        </mxCell>
        <mxCell id="fCQ0ywLXfBRmuLGaXaGh-56" value="" style="html=1;dashed=0;whitespace=wrap;fillColor=#2875E2;strokeColor=#ffffff;points=[[0.005,0.63,0],[0.1,0.2,0],[0.9,0.2,0],[0.5,0,0],[0.995,0.63,0],[0.72,0.99,0],[0.5,1,0],[0.28,0.99,0]];shape=mxgraph.kubernetes.icon;prIcon=ns;aspect=fixed;" parent="1" vertex="1">
          <mxGeometry x="1220" y="844.6" width="30" height="28.8" as="geometry" />
        </mxCell>
        <mxCell id="fCQ0ywLXfBRmuLGaXaGh-57" value="" style="html=1;dashed=0;whitespace=wrap;fillColor=#2875E2;strokeColor=#ffffff;points=[[0.005,0.63,0],[0.1,0.2,0],[0.9,0.2,0],[0.5,0,0],[0.995,0.63,0],[0.72,0.99,0],[0.5,1,0],[0.28,0.99,0]];shape=mxgraph.kubernetes.icon;prIcon=ing;aspect=fixed;" parent="1" vertex="1">
          <mxGeometry x="1180" y="934.4000000000001" width="30" height="28.8" as="geometry" />
        </mxCell>
        <mxCell id="fCQ0ywLXfBRmuLGaXaGh-58" value="" style="html=1;dashed=0;whitespace=wrap;fillColor=#2875E2;strokeColor=#ffffff;points=[[0.005,0.63,0],[0.1,0.2,0],[0.9,0.2,0],[0.5,0,0],[0.995,0.63,0],[0.72,0.99,0],[0.5,1,0],[0.28,0.99,0]];shape=mxgraph.kubernetes.icon;prIcon=pod;aspect=fixed;" parent="1" vertex="1">
          <mxGeometry x="1260" y="934.4000000000001" width="30" height="28.8" as="geometry" />
        </mxCell>
        <mxCell id="fCQ0ywLXfBRmuLGaXaGh-59" value="" style="html=1;dashed=0;whitespace=wrap;fillColor=#2875E2;strokeColor=#ffffff;points=[[0.005,0.63,0],[0.1,0.2,0],[0.9,0.2,0],[0.5,0,0],[0.995,0.63,0],[0.72,0.99,0],[0.5,1,0],[0.28,0.99,0]];shape=mxgraph.kubernetes.icon;prIcon=svc;aspect=fixed;" parent="1" vertex="1">
          <mxGeometry x="1220" y="934.4000000000001" width="30" height="28.8" as="geometry" />
        </mxCell>
        <mxCell id="fCQ0ywLXfBRmuLGaXaGh-60" value="" style="html=1;dashed=0;whitespace=wrap;fillColor=#2875E2;strokeColor=#ffffff;points=[[0.005,0.63,0],[0.1,0.2,0],[0.9,0.2,0],[0.5,0,0],[0.995,0.63,0],[0.72,0.99,0],[0.5,1,0],[0.28,0.99,0]];shape=mxgraph.kubernetes.icon;prIcon=quota;aspect=fixed;" parent="1" vertex="1">
          <mxGeometry x="1416" y="538" width="30" height="28.8" as="geometry" />
        </mxCell>
        <mxCell id="fCQ0ywLXfBRmuLGaXaGh-61" value="Service 1 resources" style="rounded=1;whiteSpace=wrap;html=1;verticalAlign=top;" parent="1" vertex="1">
          <mxGeometry x="1371" y="582.4000000000001" width="120" height="98.8" as="geometry" />
        </mxCell>
        <mxCell id="fCQ0ywLXfBRmuLGaXaGh-62" value="" style="html=1;dashed=0;whitespace=wrap;fillColor=#2875E2;strokeColor=#ffffff;points=[[0.005,0.63,0],[0.1,0.2,0],[0.9,0.2,0],[0.5,0,0],[0.995,0.63,0],[0.72,0.99,0],[0.5,1,0],[0.28,0.99,0]];shape=mxgraph.kubernetes.icon;prIcon=ing;aspect=fixed;" parent="1" vertex="1">
          <mxGeometry x="1376" y="636.8000000000001" width="30" height="28.8" as="geometry" />
        </mxCell>
        <mxCell id="fCQ0ywLXfBRmuLGaXaGh-63" value="" style="html=1;dashed=0;whitespace=wrap;fillColor=#2875E2;strokeColor=#ffffff;points=[[0.005,0.63,0],[0.1,0.2,0],[0.9,0.2,0],[0.5,0,0],[0.995,0.63,0],[0.72,0.99,0],[0.5,1,0],[0.28,0.99,0]];shape=mxgraph.kubernetes.icon;prIcon=pod;aspect=fixed;" parent="1" vertex="1">
          <mxGeometry x="1456" y="636.8000000000001" width="30" height="28.8" as="geometry" />
        </mxCell>
        <mxCell id="fCQ0ywLXfBRmuLGaXaGh-64" value="" style="html=1;dashed=0;whitespace=wrap;fillColor=#2875E2;strokeColor=#ffffff;points=[[0.005,0.63,0],[0.1,0.2,0],[0.9,0.2,0],[0.5,0,0],[0.995,0.63,0],[0.72,0.99,0],[0.5,1,0],[0.28,0.99,0]];shape=mxgraph.kubernetes.icon;prIcon=svc;aspect=fixed;" parent="1" vertex="1">
          <mxGeometry x="1416" y="636.8000000000001" width="30" height="28.8" as="geometry" />
        </mxCell>
        <mxCell id="fCQ0ywLXfBRmuLGaXaGh-65" value="Service 2 Namespace" style="rounded=1;whiteSpace=wrap;html=1;verticalAlign=top;" parent="1" vertex="1">
          <mxGeometry x="1540" y="451.2" width="140" height="240" as="geometry" />
        </mxCell>
        <mxCell id="fCQ0ywLXfBRmuLGaXaGh-66" value="" style="html=1;dashed=0;whitespace=wrap;fillColor=#2875E2;strokeColor=#ffffff;points=[[0.005,0.63,0],[0.1,0.2,0],[0.9,0.2,0],[0.5,0,0],[0.995,0.63,0],[0.72,0.99,0],[0.5,1,0],[0.28,0.99,0]];shape=mxgraph.kubernetes.icon;prIcon=ns;aspect=fixed;" parent="1" vertex="1">
          <mxGeometry x="1591" y="478.2" width="30" height="28.8" as="geometry" />
        </mxCell>
        <mxCell id="fCQ0ywLXfBRmuLGaXaGh-67" value="Resource Quota" style="rounded=1;whiteSpace=wrap;html=1;verticalAlign=top;" parent="1" vertex="1">
          <mxGeometry x="1551" y="512.4" width="120" height="60" as="geometry" />
        </mxCell>
        <mxCell id="fCQ0ywLXfBRmuLGaXaGh-68" value="" style="html=1;dashed=0;whitespace=wrap;fillColor=#2875E2;strokeColor=#ffffff;points=[[0.005,0.63,0],[0.1,0.2,0],[0.9,0.2,0],[0.5,0,0],[0.995,0.63,0],[0.72,0.99,0],[0.5,1,0],[0.28,0.99,0]];shape=mxgraph.kubernetes.icon;prIcon=quota;aspect=fixed;" parent="1" vertex="1">
          <mxGeometry x="1596" y="538" width="30" height="28.8" as="geometry" />
        </mxCell>
        <mxCell id="fCQ0ywLXfBRmuLGaXaGh-69" value="Service 2 resources" style="rounded=1;whiteSpace=wrap;html=1;verticalAlign=top;" parent="1" vertex="1">
          <mxGeometry x="1551" y="582.4000000000001" width="120" height="98.8" as="geometry" />
        </mxCell>
        <mxCell id="fCQ0ywLXfBRmuLGaXaGh-70" value="" style="html=1;dashed=0;whitespace=wrap;fillColor=#2875E2;strokeColor=#ffffff;points=[[0.005,0.63,0],[0.1,0.2,0],[0.9,0.2,0],[0.5,0,0],[0.995,0.63,0],[0.72,0.99,0],[0.5,1,0],[0.28,0.99,0]];shape=mxgraph.kubernetes.icon;prIcon=ing;aspect=fixed;" parent="1" vertex="1">
          <mxGeometry x="1556" y="636.8000000000001" width="30" height="28.8" as="geometry" />
        </mxCell>
        <mxCell id="fCQ0ywLXfBRmuLGaXaGh-71" value="" style="html=1;dashed=0;whitespace=wrap;fillColor=#2875E2;strokeColor=#ffffff;points=[[0.005,0.63,0],[0.1,0.2,0],[0.9,0.2,0],[0.5,0,0],[0.995,0.63,0],[0.72,0.99,0],[0.5,1,0],[0.28,0.99,0]];shape=mxgraph.kubernetes.icon;prIcon=pod;aspect=fixed;" parent="1" vertex="1">
          <mxGeometry x="1636" y="636.8000000000001" width="30" height="28.8" as="geometry" />
        </mxCell>
        <mxCell id="fCQ0ywLXfBRmuLGaXaGh-72" value="" style="html=1;dashed=0;whitespace=wrap;fillColor=#2875E2;strokeColor=#ffffff;points=[[0.005,0.63,0],[0.1,0.2,0],[0.9,0.2,0],[0.5,0,0],[0.995,0.63,0],[0.72,0.99,0],[0.5,1,0],[0.28,0.99,0]];shape=mxgraph.kubernetes.icon;prIcon=svc;aspect=fixed;" parent="1" vertex="1">
          <mxGeometry x="1596" y="636.8000000000001" width="30" height="28.8" as="geometry" />
        </mxCell>
        <mxCell id="fCQ0ywLXfBRmuLGaXaGh-89" value="&lt;font style=&quot;font-size: 12px&quot;&gt;PR1 Namespace&lt;br&gt;(Sandpit only)&lt;/font&gt;" style="rounded=1;whiteSpace=wrap;html=1;verticalAlign=top;" parent="1" vertex="1">
          <mxGeometry x="1351" y="728.8" width="150" height="185" as="geometry" />
        </mxCell>
        <mxCell id="fCQ0ywLXfBRmuLGaXaGh-90" value="PR1 resources" style="rounded=1;whiteSpace=wrap;html=1;verticalAlign=top;" parent="1" vertex="1">
          <mxGeometry x="1366" y="805" width="120" height="98.8" as="geometry" />
        </mxCell>
        <mxCell id="fCQ0ywLXfBRmuLGaXaGh-91" value="" style="html=1;dashed=0;whitespace=wrap;fillColor=#2875E2;strokeColor=#ffffff;points=[[0.005,0.63,0],[0.1,0.2,0],[0.9,0.2,0],[0.5,0,0],[0.995,0.63,0],[0.72,0.99,0],[0.5,1,0],[0.28,0.99,0]];shape=mxgraph.kubernetes.icon;prIcon=ns;aspect=fixed;" parent="1" vertex="1">
          <mxGeometry x="1411" y="769.5999999999999" width="30" height="28.8" as="geometry" />
        </mxCell>
        <mxCell id="fCQ0ywLXfBRmuLGaXaGh-92" value="" style="html=1;dashed=0;whitespace=wrap;fillColor=#2875E2;strokeColor=#ffffff;points=[[0.005,0.63,0],[0.1,0.2,0],[0.9,0.2,0],[0.5,0,0],[0.995,0.63,0],[0.72,0.99,0],[0.5,1,0],[0.28,0.99,0]];shape=mxgraph.kubernetes.icon;prIcon=ing;aspect=fixed;" parent="1" vertex="1">
          <mxGeometry x="1371" y="859.4" width="30" height="28.8" as="geometry" />
        </mxCell>
        <mxCell id="fCQ0ywLXfBRmuLGaXaGh-93" value="" style="html=1;dashed=0;whitespace=wrap;fillColor=#2875E2;strokeColor=#ffffff;points=[[0.005,0.63,0],[0.1,0.2,0],[0.9,0.2,0],[0.5,0,0],[0.995,0.63,0],[0.72,0.99,0],[0.5,1,0],[0.28,0.99,0]];shape=mxgraph.kubernetes.icon;prIcon=pod;aspect=fixed;" parent="1" vertex="1">
          <mxGeometry x="1451" y="859.4" width="30" height="28.8" as="geometry" />
        </mxCell>
        <mxCell id="fCQ0ywLXfBRmuLGaXaGh-94" value="" style="html=1;dashed=0;whitespace=wrap;fillColor=#2875E2;strokeColor=#ffffff;points=[[0.005,0.63,0],[0.1,0.2,0],[0.9,0.2,0],[0.5,0,0],[0.995,0.63,0],[0.72,0.99,0],[0.5,1,0],[0.28,0.99,0]];shape=mxgraph.kubernetes.icon;prIcon=svc;aspect=fixed;" parent="1" vertex="1">
          <mxGeometry x="1411" y="859.4" width="30" height="28.8" as="geometry" />
        </mxCell>
        <mxCell id="fCQ0ywLXfBRmuLGaXaGh-95" value="&lt;font style=&quot;font-size: 12px&quot;&gt;PR2 Namespace&lt;br&gt;(Sandpit only)&lt;/font&gt;" style="rounded=1;whiteSpace=wrap;html=1;verticalAlign=top;" parent="1" vertex="1">
          <mxGeometry x="1535" y="728.8" width="150" height="185" as="geometry" />
        </mxCell>
        <mxCell id="fCQ0ywLXfBRmuLGaXaGh-96" value="PR2 resources" style="rounded=1;whiteSpace=wrap;html=1;verticalAlign=top;" parent="1" vertex="1">
          <mxGeometry x="1550" y="805" width="120" height="98.8" as="geometry" />
        </mxCell>
        <mxCell id="fCQ0ywLXfBRmuLGaXaGh-97" value="" style="html=1;dashed=0;whitespace=wrap;fillColor=#2875E2;strokeColor=#ffffff;points=[[0.005,0.63,0],[0.1,0.2,0],[0.9,0.2,0],[0.5,0,0],[0.995,0.63,0],[0.72,0.99,0],[0.5,1,0],[0.28,0.99,0]];shape=mxgraph.kubernetes.icon;prIcon=ns;aspect=fixed;" parent="1" vertex="1">
          <mxGeometry x="1595" y="769.5999999999999" width="30" height="28.8" as="geometry" />
        </mxCell>
        <mxCell id="fCQ0ywLXfBRmuLGaXaGh-98" value="" style="html=1;dashed=0;whitespace=wrap;fillColor=#2875E2;strokeColor=#ffffff;points=[[0.005,0.63,0],[0.1,0.2,0],[0.9,0.2,0],[0.5,0,0],[0.995,0.63,0],[0.72,0.99,0],[0.5,1,0],[0.28,0.99,0]];shape=mxgraph.kubernetes.icon;prIcon=ing;aspect=fixed;" parent="1" vertex="1">
          <mxGeometry x="1555" y="859.4" width="30" height="28.8" as="geometry" />
        </mxCell>
        <mxCell id="fCQ0ywLXfBRmuLGaXaGh-99" value="" style="html=1;dashed=0;whitespace=wrap;fillColor=#2875E2;strokeColor=#ffffff;points=[[0.005,0.63,0],[0.1,0.2,0],[0.9,0.2,0],[0.5,0,0],[0.995,0.63,0],[0.72,0.99,0],[0.5,1,0],[0.28,0.99,0]];shape=mxgraph.kubernetes.icon;prIcon=pod;aspect=fixed;" parent="1" vertex="1">
          <mxGeometry x="1635" y="859.4" width="30" height="28.8" as="geometry" />
        </mxCell>
        <mxCell id="fCQ0ywLXfBRmuLGaXaGh-100" value="" style="html=1;dashed=0;whitespace=wrap;fillColor=#2875E2;strokeColor=#ffffff;points=[[0.005,0.63,0],[0.1,0.2,0],[0.9,0.2,0],[0.5,0,0],[0.995,0.63,0],[0.72,0.99,0],[0.5,1,0],[0.28,0.99,0]];shape=mxgraph.kubernetes.icon;prIcon=svc;aspect=fixed;" parent="1" vertex="1">
          <mxGeometry x="1595" y="859.4" width="30" height="28.8" as="geometry" />
        </mxCell>
        <mxCell id="8CiNjuALpJsSW3Yr4W5U-109" value="&lt;b&gt;Development AKS&lt;/b&gt;" style="rounded=1;whiteSpace=wrap;html=1;horizontal=1;verticalAlign=top;" vertex="1" parent="1">
          <mxGeometry x="1750" y="380" width="870" height="730" as="geometry" />
        </mxCell>
        <mxCell id="8CiNjuALpJsSW3Yr4W5U-110" value="" style="aspect=fixed;html=1;points=[];align=center;image;fontSize=12;image=img/lib/mscae/Kubernetes.svg;" vertex="1" parent="1">
          <mxGeometry x="2170" y="410" width="30" height="28.8" as="geometry" />
        </mxCell>
        <mxCell id="8CiNjuALpJsSW3Yr4W5U-111" value="Non Namespace resources" style="rounded=1;whiteSpace=wrap;html=1;verticalAlign=top;" vertex="1" parent="1">
          <mxGeometry x="1770" y="450" width="140" height="270" as="geometry" />
        </mxCell>
        <mxCell id="8CiNjuALpJsSW3Yr4W5U-112" value="Priority Class (Low)" style="rounded=1;whiteSpace=wrap;html=1;verticalAlign=top;" vertex="1" parent="1">
          <mxGeometry x="1780" y="500" width="120" height="60" as="geometry" />
        </mxCell>
        <mxCell id="8CiNjuALpJsSW3Yr4W5U-113" value="" style="aspect=fixed;html=1;points=[];align=center;image;fontSize=12;image=img/lib/mscae/Kubernetes.svg;" vertex="1" parent="1">
          <mxGeometry x="1825" y="525.8" width="30" height="28.8" as="geometry" />
        </mxCell>
        <mxCell id="8CiNjuALpJsSW3Yr4W5U-114" value="&lt;font style=&quot;font-size: 11px&quot;&gt;Priority Class (Default)&lt;/font&gt;" style="rounded=1;whiteSpace=wrap;html=1;verticalAlign=top;" vertex="1" parent="1">
          <mxGeometry x="1780" y="575" width="120" height="60" as="geometry" />
        </mxCell>
        <mxCell id="8CiNjuALpJsSW3Yr4W5U-115" value="" style="aspect=fixed;html=1;points=[];align=center;image;fontSize=12;image=img/lib/mscae/Kubernetes.svg;" vertex="1" parent="1">
          <mxGeometry x="1825" y="600.8" width="30" height="28.8" as="geometry" />
        </mxCell>
        <mxCell id="8CiNjuALpJsSW3Yr4W5U-116" value="Priority Class (High)" style="rounded=1;whiteSpace=wrap;html=1;verticalAlign=top;" vertex="1" parent="1">
          <mxGeometry x="1780" y="648.8" width="120" height="60" as="geometry" />
        </mxCell>
        <mxCell id="8CiNjuALpJsSW3Yr4W5U-117" value="" style="aspect=fixed;html=1;points=[];align=center;image;fontSize=12;image=img/lib/mscae/Kubernetes.svg;" vertex="1" parent="1">
          <mxGeometry x="1825" y="674.6" width="30" height="28.8" as="geometry" />
        </mxCell>
        <mxCell id="8CiNjuALpJsSW3Yr4W5U-118" value="&lt;b&gt;ingress-basic&lt;br&gt;&lt;/b&gt;&amp;nbsp;Namespace" style="rounded=1;whiteSpace=wrap;html=1;verticalAlign=top;" vertex="1" parent="1">
          <mxGeometry x="1930" y="451.2" width="150" height="188.8" as="geometry" />
        </mxCell>
        <mxCell id="8CiNjuALpJsSW3Yr4W5U-119" value="NGINX Ingress Controller resources" style="rounded=1;whiteSpace=wrap;html=1;verticalAlign=top;" vertex="1" parent="1">
          <mxGeometry x="1945" y="531.2" width="120" height="98.8" as="geometry" />
        </mxCell>
        <mxCell id="8CiNjuALpJsSW3Yr4W5U-120" value="" style="html=1;dashed=0;whitespace=wrap;fillColor=#2875E2;strokeColor=#ffffff;points=[[0.005,0.63,0],[0.1,0.2,0],[0.9,0.2,0],[0.5,0,0],[0.995,0.63,0],[0.72,0.99,0],[0.5,1,0],[0.28,0.99,0]];shape=mxgraph.kubernetes.icon;prIcon=ns;aspect=fixed;" vertex="1" parent="1">
          <mxGeometry x="1990" y="495.8" width="30" height="28.8" as="geometry" />
        </mxCell>
        <mxCell id="8CiNjuALpJsSW3Yr4W5U-121" value="" style="html=1;dashed=0;whitespace=wrap;fillColor=#2875E2;strokeColor=#ffffff;points=[[0.005,0.63,0],[0.1,0.2,0],[0.9,0.2,0],[0.5,0,0],[0.995,0.63,0],[0.72,0.99,0],[0.5,1,0],[0.28,0.99,0]];shape=mxgraph.kubernetes.icon;prIcon=ing;aspect=fixed;" vertex="1" parent="1">
          <mxGeometry x="1950" y="585.6" width="30" height="28.8" as="geometry" />
        </mxCell>
        <mxCell id="8CiNjuALpJsSW3Yr4W5U-122" value="" style="html=1;dashed=0;whitespace=wrap;fillColor=#2875E2;strokeColor=#ffffff;points=[[0.005,0.63,0],[0.1,0.2,0],[0.9,0.2,0],[0.5,0,0],[0.995,0.63,0],[0.72,0.99,0],[0.5,1,0],[0.28,0.99,0]];shape=mxgraph.kubernetes.icon;prIcon=pod;aspect=fixed;" vertex="1" parent="1">
          <mxGeometry x="2030" y="585.6" width="30" height="28.8" as="geometry" />
        </mxCell>
        <mxCell id="8CiNjuALpJsSW3Yr4W5U-123" value="" style="html=1;dashed=0;whitespace=wrap;fillColor=#2875E2;strokeColor=#ffffff;points=[[0.005,0.63,0],[0.1,0.2,0],[0.9,0.2,0],[0.5,0,0],[0.995,0.63,0],[0.72,0.99,0],[0.5,1,0],[0.28,0.99,0]];shape=mxgraph.kubernetes.icon;prIcon=svc;aspect=fixed;" vertex="1" parent="1">
          <mxGeometry x="1990" y="585.6" width="30" height="28.8" as="geometry" />
        </mxCell>
        <mxCell id="8CiNjuALpJsSW3Yr4W5U-124" value="&lt;b&gt;aad-pod-identity&lt;br&gt;&lt;/b&gt;&amp;nbsp;Namespace" style="rounded=1;whiteSpace=wrap;html=1;verticalAlign=top;" vertex="1" parent="1">
          <mxGeometry x="2100" y="450" width="150" height="188.8" as="geometry" />
        </mxCell>
        <mxCell id="8CiNjuALpJsSW3Yr4W5U-125" value="Pod identity resources" style="rounded=1;whiteSpace=wrap;html=1;verticalAlign=top;" vertex="1" parent="1">
          <mxGeometry x="2115" y="530" width="120" height="98.8" as="geometry" />
        </mxCell>
        <mxCell id="8CiNjuALpJsSW3Yr4W5U-126" value="" style="html=1;dashed=0;whitespace=wrap;fillColor=#2875E2;strokeColor=#ffffff;points=[[0.005,0.63,0],[0.1,0.2,0],[0.9,0.2,0],[0.5,0,0],[0.995,0.63,0],[0.72,0.99,0],[0.5,1,0],[0.28,0.99,0]];shape=mxgraph.kubernetes.icon;prIcon=ns;aspect=fixed;" vertex="1" parent="1">
          <mxGeometry x="2160" y="494.6" width="30" height="28.8" as="geometry" />
        </mxCell>
        <mxCell id="8CiNjuALpJsSW3Yr4W5U-127" value="" style="html=1;dashed=0;whitespace=wrap;fillColor=#2875E2;strokeColor=#ffffff;points=[[0.005,0.63,0],[0.1,0.2,0],[0.9,0.2,0],[0.5,0,0],[0.995,0.63,0],[0.72,0.99,0],[0.5,1,0],[0.28,0.99,0]];shape=mxgraph.kubernetes.icon;prIcon=ing;aspect=fixed;" vertex="1" parent="1">
          <mxGeometry x="2120" y="584.4" width="30" height="28.8" as="geometry" />
        </mxCell>
        <mxCell id="8CiNjuALpJsSW3Yr4W5U-128" value="" style="html=1;dashed=0;whitespace=wrap;fillColor=#2875E2;strokeColor=#ffffff;points=[[0.005,0.63,0],[0.1,0.2,0],[0.9,0.2,0],[0.5,0,0],[0.995,0.63,0],[0.72,0.99,0],[0.5,1,0],[0.28,0.99,0]];shape=mxgraph.kubernetes.icon;prIcon=pod;aspect=fixed;" vertex="1" parent="1">
          <mxGeometry x="2200" y="584.4" width="30" height="28.8" as="geometry" />
        </mxCell>
        <mxCell id="8CiNjuALpJsSW3Yr4W5U-129" value="" style="html=1;dashed=0;whitespace=wrap;fillColor=#2875E2;strokeColor=#ffffff;points=[[0.005,0.63,0],[0.1,0.2,0],[0.9,0.2,0],[0.5,0,0],[0.995,0.63,0],[0.72,0.99,0],[0.5,1,0],[0.28,0.99,0]];shape=mxgraph.kubernetes.icon;prIcon=svc;aspect=fixed;" vertex="1" parent="1">
          <mxGeometry x="2160" y="584.4" width="30" height="28.8" as="geometry" />
        </mxCell>
        <mxCell id="8CiNjuALpJsSW3Yr4W5U-141" value="&lt;b&gt;linkerd&lt;br&gt;&lt;/b&gt;&amp;nbsp;Namespace" style="rounded=1;whiteSpace=wrap;html=1;verticalAlign=top;" vertex="1" parent="1">
          <mxGeometry x="2270" y="451.2" width="150" height="188.8" as="geometry" />
        </mxCell>
        <mxCell id="8CiNjuALpJsSW3Yr4W5U-142" value="Linkerd resources" style="rounded=1;whiteSpace=wrap;html=1;verticalAlign=top;" vertex="1" parent="1">
          <mxGeometry x="2285" y="531.2" width="120" height="98.8" as="geometry" />
        </mxCell>
        <mxCell id="8CiNjuALpJsSW3Yr4W5U-143" value="" style="html=1;dashed=0;whitespace=wrap;fillColor=#2875E2;strokeColor=#ffffff;points=[[0.005,0.63,0],[0.1,0.2,0],[0.9,0.2,0],[0.5,0,0],[0.995,0.63,0],[0.72,0.99,0],[0.5,1,0],[0.28,0.99,0]];shape=mxgraph.kubernetes.icon;prIcon=ns;aspect=fixed;" vertex="1" parent="1">
          <mxGeometry x="2330" y="495.8" width="30" height="28.8" as="geometry" />
        </mxCell>
        <mxCell id="8CiNjuALpJsSW3Yr4W5U-144" value="" style="html=1;dashed=0;whitespace=wrap;fillColor=#2875E2;strokeColor=#ffffff;points=[[0.005,0.63,0],[0.1,0.2,0],[0.9,0.2,0],[0.5,0,0],[0.995,0.63,0],[0.72,0.99,0],[0.5,1,0],[0.28,0.99,0]];shape=mxgraph.kubernetes.icon;prIcon=ing;aspect=fixed;" vertex="1" parent="1">
          <mxGeometry x="2290" y="585.6" width="30" height="28.8" as="geometry" />
        </mxCell>
        <mxCell id="8CiNjuALpJsSW3Yr4W5U-145" value="" style="html=1;dashed=0;whitespace=wrap;fillColor=#2875E2;strokeColor=#ffffff;points=[[0.005,0.63,0],[0.1,0.2,0],[0.9,0.2,0],[0.5,0,0],[0.995,0.63,0],[0.72,0.99,0],[0.5,1,0],[0.28,0.99,0]];shape=mxgraph.kubernetes.icon;prIcon=pod;aspect=fixed;" vertex="1" parent="1">
          <mxGeometry x="2370" y="585.6" width="30" height="28.8" as="geometry" />
        </mxCell>
        <mxCell id="8CiNjuALpJsSW3Yr4W5U-146" value="" style="html=1;dashed=0;whitespace=wrap;fillColor=#2875E2;strokeColor=#ffffff;points=[[0.005,0.63,0],[0.1,0.2,0],[0.9,0.2,0],[0.5,0,0],[0.995,0.63,0],[0.72,0.99,0],[0.5,1,0],[0.28,0.99,0]];shape=mxgraph.kubernetes.icon;prIcon=svc;aspect=fixed;" vertex="1" parent="1">
          <mxGeometry x="2330" y="585.6" width="30" height="28.8" as="geometry" />
        </mxCell>
        <mxCell id="8CiNjuALpJsSW3Yr4W5U-148" value="&lt;b&gt;ffc-pr-dev&lt;br&gt;&lt;/b&gt;&amp;nbsp;Namespace" style="rounded=1;whiteSpace=wrap;html=1;verticalAlign=top;" vertex="1" parent="1">
          <mxGeometry x="1930" y="665.6" width="150" height="188.8" as="geometry" />
        </mxCell>
        <mxCell id="8CiNjuALpJsSW3Yr4W5U-149" value="PRC resources" style="rounded=1;whiteSpace=wrap;html=1;verticalAlign=top;" vertex="1" parent="1">
          <mxGeometry x="1945" y="745.6" width="120" height="98.8" as="geometry" />
        </mxCell>
        <mxCell id="8CiNjuALpJsSW3Yr4W5U-150" value="" style="html=1;dashed=0;whitespace=wrap;fillColor=#2875E2;strokeColor=#ffffff;points=[[0.005,0.63,0],[0.1,0.2,0],[0.9,0.2,0],[0.5,0,0],[0.995,0.63,0],[0.72,0.99,0],[0.5,1,0],[0.28,0.99,0]];shape=mxgraph.kubernetes.icon;prIcon=ns;aspect=fixed;" vertex="1" parent="1">
          <mxGeometry x="1990" y="710.2" width="30" height="28.8" as="geometry" />
        </mxCell>
        <mxCell id="8CiNjuALpJsSW3Yr4W5U-151" value="" style="html=1;dashed=0;whitespace=wrap;fillColor=#2875E2;strokeColor=#ffffff;points=[[0.005,0.63,0],[0.1,0.2,0],[0.9,0.2,0],[0.5,0,0],[0.995,0.63,0],[0.72,0.99,0],[0.5,1,0],[0.28,0.99,0]];shape=mxgraph.kubernetes.icon;prIcon=ing;aspect=fixed;" vertex="1" parent="1">
          <mxGeometry x="1950" y="800" width="30" height="28.8" as="geometry" />
        </mxCell>
        <mxCell id="8CiNjuALpJsSW3Yr4W5U-152" value="" style="html=1;dashed=0;whitespace=wrap;fillColor=#2875E2;strokeColor=#ffffff;points=[[0.005,0.63,0],[0.1,0.2,0],[0.9,0.2,0],[0.5,0,0],[0.995,0.63,0],[0.72,0.99,0],[0.5,1,0],[0.28,0.99,0]];shape=mxgraph.kubernetes.icon;prIcon=pod;aspect=fixed;" vertex="1" parent="1">
          <mxGeometry x="2030" y="800" width="30" height="28.8" as="geometry" />
        </mxCell>
        <mxCell id="8CiNjuALpJsSW3Yr4W5U-153" value="" style="html=1;dashed=0;whitespace=wrap;fillColor=#2875E2;strokeColor=#ffffff;points=[[0.005,0.63,0],[0.1,0.2,0],[0.9,0.2,0],[0.5,0,0],[0.995,0.63,0],[0.72,0.99,0],[0.5,1,0],[0.28,0.99,0]];shape=mxgraph.kubernetes.icon;prIcon=svc;aspect=fixed;" vertex="1" parent="1">
          <mxGeometry x="1990" y="800" width="30" height="28.8" as="geometry" />
        </mxCell>
        <mxCell id="8CiNjuALpJsSW3Yr4W5U-154" value="&lt;b&gt;ffc-demo-dev&lt;br&gt;&lt;/b&gt;&amp;nbsp;Namespace" style="rounded=1;whiteSpace=wrap;html=1;verticalAlign=top;" vertex="1" parent="1">
          <mxGeometry x="2100" y="665.6" width="150" height="188.8" as="geometry" />
        </mxCell>
        <mxCell id="8CiNjuALpJsSW3Yr4W5U-155" value="Demo service resources" style="rounded=1;whiteSpace=wrap;html=1;verticalAlign=top;" vertex="1" parent="1">
          <mxGeometry x="2115" y="745.6" width="120" height="98.8" as="geometry" />
        </mxCell>
        <mxCell id="8CiNjuALpJsSW3Yr4W5U-156" value="" style="html=1;dashed=0;whitespace=wrap;fillColor=#2875E2;strokeColor=#ffffff;points=[[0.005,0.63,0],[0.1,0.2,0],[0.9,0.2,0],[0.5,0,0],[0.995,0.63,0],[0.72,0.99,0],[0.5,1,0],[0.28,0.99,0]];shape=mxgraph.kubernetes.icon;prIcon=ns;aspect=fixed;" vertex="1" parent="1">
          <mxGeometry x="2160" y="710.1999999999999" width="30" height="28.8" as="geometry" />
        </mxCell>
        <mxCell id="8CiNjuALpJsSW3Yr4W5U-157" value="" style="html=1;dashed=0;whitespace=wrap;fillColor=#2875E2;strokeColor=#ffffff;points=[[0.005,0.63,0],[0.1,0.2,0],[0.9,0.2,0],[0.5,0,0],[0.995,0.63,0],[0.72,0.99,0],[0.5,1,0],[0.28,0.99,0]];shape=mxgraph.kubernetes.icon;prIcon=ing;aspect=fixed;" vertex="1" parent="1">
          <mxGeometry x="2120" y="800" width="30" height="28.8" as="geometry" />
        </mxCell>
        <mxCell id="8CiNjuALpJsSW3Yr4W5U-158" value="" style="html=1;dashed=0;whitespace=wrap;fillColor=#2875E2;strokeColor=#ffffff;points=[[0.005,0.63,0],[0.1,0.2,0],[0.9,0.2,0],[0.5,0,0],[0.995,0.63,0],[0.72,0.99,0],[0.5,1,0],[0.28,0.99,0]];shape=mxgraph.kubernetes.icon;prIcon=pod;aspect=fixed;" vertex="1" parent="1">
          <mxGeometry x="2200" y="800" width="30" height="28.8" as="geometry" />
        </mxCell>
        <mxCell id="8CiNjuALpJsSW3Yr4W5U-159" value="" style="html=1;dashed=0;whitespace=wrap;fillColor=#2875E2;strokeColor=#ffffff;points=[[0.005,0.63,0],[0.1,0.2,0],[0.9,0.2,0],[0.5,0,0],[0.995,0.63,0],[0.72,0.99,0],[0.5,1,0],[0.28,0.99,0]];shape=mxgraph.kubernetes.icon;prIcon=svc;aspect=fixed;" vertex="1" parent="1">
          <mxGeometry x="2160" y="800" width="30" height="28.8" as="geometry" />
        </mxCell>
        <mxCell id="8CiNjuALpJsSW3Yr4W5U-160" value="&lt;b&gt;ffc-grants-dev&lt;br&gt;&lt;/b&gt;&amp;nbsp;Namespace" style="rounded=1;whiteSpace=wrap;html=1;verticalAlign=top;" vertex="1" parent="1">
          <mxGeometry x="2270" y="665.6" width="150" height="188.8" as="geometry" />
        </mxCell>
        <mxCell id="8CiNjuALpJsSW3Yr4W5U-161" value="Grants service resources" style="rounded=1;whiteSpace=wrap;html=1;verticalAlign=top;" vertex="1" parent="1">
          <mxGeometry x="2285" y="745.6" width="120" height="98.8" as="geometry" />
        </mxCell>
        <mxCell id="8CiNjuALpJsSW3Yr4W5U-162" value="" style="html=1;dashed=0;whitespace=wrap;fillColor=#2875E2;strokeColor=#ffffff;points=[[0.005,0.63,0],[0.1,0.2,0],[0.9,0.2,0],[0.5,0,0],[0.995,0.63,0],[0.72,0.99,0],[0.5,1,0],[0.28,0.99,0]];shape=mxgraph.kubernetes.icon;prIcon=ns;aspect=fixed;" vertex="1" parent="1">
          <mxGeometry x="2330" y="710.1999999999999" width="30" height="28.8" as="geometry" />
        </mxCell>
        <mxCell id="8CiNjuALpJsSW3Yr4W5U-163" value="" style="html=1;dashed=0;whitespace=wrap;fillColor=#2875E2;strokeColor=#ffffff;points=[[0.005,0.63,0],[0.1,0.2,0],[0.9,0.2,0],[0.5,0,0],[0.995,0.63,0],[0.72,0.99,0],[0.5,1,0],[0.28,0.99,0]];shape=mxgraph.kubernetes.icon;prIcon=ing;aspect=fixed;" vertex="1" parent="1">
          <mxGeometry x="2290" y="800" width="30" height="28.8" as="geometry" />
        </mxCell>
        <mxCell id="8CiNjuALpJsSW3Yr4W5U-164" value="" style="html=1;dashed=0;whitespace=wrap;fillColor=#2875E2;strokeColor=#ffffff;points=[[0.005,0.63,0],[0.1,0.2,0],[0.9,0.2,0],[0.5,0,0],[0.995,0.63,0],[0.72,0.99,0],[0.5,1,0],[0.28,0.99,0]];shape=mxgraph.kubernetes.icon;prIcon=pod;aspect=fixed;" vertex="1" parent="1">
          <mxGeometry x="2370" y="800" width="30" height="28.8" as="geometry" />
        </mxCell>
        <mxCell id="8CiNjuALpJsSW3Yr4W5U-165" value="" style="html=1;dashed=0;whitespace=wrap;fillColor=#2875E2;strokeColor=#ffffff;points=[[0.005,0.63,0],[0.1,0.2,0],[0.9,0.2,0],[0.5,0,0],[0.995,0.63,0],[0.72,0.99,0],[0.5,1,0],[0.28,0.99,0]];shape=mxgraph.kubernetes.icon;prIcon=svc;aspect=fixed;" vertex="1" parent="1">
          <mxGeometry x="2330" y="800" width="30" height="28.8" as="geometry" />
        </mxCell>
        <mxCell id="8CiNjuALpJsSW3Yr4W5U-166" value="&lt;b&gt;ffc-pr-test&lt;br&gt;&lt;/b&gt;&amp;nbsp;Namespace" style="rounded=1;whiteSpace=wrap;html=1;verticalAlign=top;" vertex="1" parent="1">
          <mxGeometry x="1930" y="871.2" width="150" height="188.8" as="geometry" />
        </mxCell>
        <mxCell id="8CiNjuALpJsSW3Yr4W5U-167" value="PRC resources" style="rounded=1;whiteSpace=wrap;html=1;verticalAlign=top;" vertex="1" parent="1">
          <mxGeometry x="1945" y="951.2" width="120" height="98.8" as="geometry" />
        </mxCell>
        <mxCell id="8CiNjuALpJsSW3Yr4W5U-168" value="" style="html=1;dashed=0;whitespace=wrap;fillColor=#2875E2;strokeColor=#ffffff;points=[[0.005,0.63,0],[0.1,0.2,0],[0.9,0.2,0],[0.5,0,0],[0.995,0.63,0],[0.72,0.99,0],[0.5,1,0],[0.28,0.99,0]];shape=mxgraph.kubernetes.icon;prIcon=ns;aspect=fixed;" vertex="1" parent="1">
          <mxGeometry x="1990" y="915.8000000000001" width="30" height="28.8" as="geometry" />
        </mxCell>
        <mxCell id="8CiNjuALpJsSW3Yr4W5U-169" value="" style="html=1;dashed=0;whitespace=wrap;fillColor=#2875E2;strokeColor=#ffffff;points=[[0.005,0.63,0],[0.1,0.2,0],[0.9,0.2,0],[0.5,0,0],[0.995,0.63,0],[0.72,0.99,0],[0.5,1,0],[0.28,0.99,0]];shape=mxgraph.kubernetes.icon;prIcon=ing;aspect=fixed;" vertex="1" parent="1">
          <mxGeometry x="1950" y="1005.6" width="30" height="28.8" as="geometry" />
        </mxCell>
        <mxCell id="8CiNjuALpJsSW3Yr4W5U-170" value="" style="html=1;dashed=0;whitespace=wrap;fillColor=#2875E2;strokeColor=#ffffff;points=[[0.005,0.63,0],[0.1,0.2,0],[0.9,0.2,0],[0.5,0,0],[0.995,0.63,0],[0.72,0.99,0],[0.5,1,0],[0.28,0.99,0]];shape=mxgraph.kubernetes.icon;prIcon=pod;aspect=fixed;" vertex="1" parent="1">
          <mxGeometry x="2030" y="1005.6" width="30" height="28.8" as="geometry" />
        </mxCell>
        <mxCell id="8CiNjuALpJsSW3Yr4W5U-171" value="" style="html=1;dashed=0;whitespace=wrap;fillColor=#2875E2;strokeColor=#ffffff;points=[[0.005,0.63,0],[0.1,0.2,0],[0.9,0.2,0],[0.5,0,0],[0.995,0.63,0],[0.72,0.99,0],[0.5,1,0],[0.28,0.99,0]];shape=mxgraph.kubernetes.icon;prIcon=svc;aspect=fixed;" vertex="1" parent="1">
          <mxGeometry x="1990" y="1005.6" width="30" height="28.8" as="geometry" />
        </mxCell>
        <mxCell id="8CiNjuALpJsSW3Yr4W5U-172" value="&lt;b&gt;ffc-demo-test&lt;br&gt;&lt;/b&gt;&amp;nbsp;Namespace" style="rounded=1;whiteSpace=wrap;html=1;verticalAlign=top;" vertex="1" parent="1">
          <mxGeometry x="2100" y="871.2" width="150" height="188.8" as="geometry" />
        </mxCell>
        <mxCell id="8CiNjuALpJsSW3Yr4W5U-173" value="Demo service resources" style="rounded=1;whiteSpace=wrap;html=1;verticalAlign=top;" vertex="1" parent="1">
          <mxGeometry x="2115" y="951.2" width="120" height="98.8" as="geometry" />
        </mxCell>
        <mxCell id="8CiNjuALpJsSW3Yr4W5U-174" value="" style="html=1;dashed=0;whitespace=wrap;fillColor=#2875E2;strokeColor=#ffffff;points=[[0.005,0.63,0],[0.1,0.2,0],[0.9,0.2,0],[0.5,0,0],[0.995,0.63,0],[0.72,0.99,0],[0.5,1,0],[0.28,0.99,0]];shape=mxgraph.kubernetes.icon;prIcon=ns;aspect=fixed;" vertex="1" parent="1">
          <mxGeometry x="2160" y="915.8" width="30" height="28.8" as="geometry" />
        </mxCell>
        <mxCell id="8CiNjuALpJsSW3Yr4W5U-175" value="" style="html=1;dashed=0;whitespace=wrap;fillColor=#2875E2;strokeColor=#ffffff;points=[[0.005,0.63,0],[0.1,0.2,0],[0.9,0.2,0],[0.5,0,0],[0.995,0.63,0],[0.72,0.99,0],[0.5,1,0],[0.28,0.99,0]];shape=mxgraph.kubernetes.icon;prIcon=ing;aspect=fixed;" vertex="1" parent="1">
          <mxGeometry x="2120" y="1005.6" width="30" height="28.8" as="geometry" />
        </mxCell>
        <mxCell id="8CiNjuALpJsSW3Yr4W5U-176" value="" style="html=1;dashed=0;whitespace=wrap;fillColor=#2875E2;strokeColor=#ffffff;points=[[0.005,0.63,0],[0.1,0.2,0],[0.9,0.2,0],[0.5,0,0],[0.995,0.63,0],[0.72,0.99,0],[0.5,1,0],[0.28,0.99,0]];shape=mxgraph.kubernetes.icon;prIcon=pod;aspect=fixed;" vertex="1" parent="1">
          <mxGeometry x="2200" y="1005.6" width="30" height="28.8" as="geometry" />
        </mxCell>
        <mxCell id="8CiNjuALpJsSW3Yr4W5U-177" value="" style="html=1;dashed=0;whitespace=wrap;fillColor=#2875E2;strokeColor=#ffffff;points=[[0.005,0.63,0],[0.1,0.2,0],[0.9,0.2,0],[0.5,0,0],[0.995,0.63,0],[0.72,0.99,0],[0.5,1,0],[0.28,0.99,0]];shape=mxgraph.kubernetes.icon;prIcon=svc;aspect=fixed;" vertex="1" parent="1">
          <mxGeometry x="2160" y="1005.6" width="30" height="28.8" as="geometry" />
        </mxCell>
        <mxCell id="8CiNjuALpJsSW3Yr4W5U-178" value="&lt;b&gt;ffc-grants-test&lt;br&gt;&lt;/b&gt;&amp;nbsp;Namespace" style="rounded=1;whiteSpace=wrap;html=1;verticalAlign=top;" vertex="1" parent="1">
          <mxGeometry x="2270" y="871.2" width="150" height="188.8" as="geometry" />
        </mxCell>
        <mxCell id="8CiNjuALpJsSW3Yr4W5U-179" value="Grants service resources" style="rounded=1;whiteSpace=wrap;html=1;verticalAlign=top;" vertex="1" parent="1">
          <mxGeometry x="2285" y="951.2" width="120" height="98.8" as="geometry" />
        </mxCell>
        <mxCell id="8CiNjuALpJsSW3Yr4W5U-180" value="" style="html=1;dashed=0;whitespace=wrap;fillColor=#2875E2;strokeColor=#ffffff;points=[[0.005,0.63,0],[0.1,0.2,0],[0.9,0.2,0],[0.5,0,0],[0.995,0.63,0],[0.72,0.99,0],[0.5,1,0],[0.28,0.99,0]];shape=mxgraph.kubernetes.icon;prIcon=ns;aspect=fixed;" vertex="1" parent="1">
          <mxGeometry x="2330" y="915.8" width="30" height="28.8" as="geometry" />
        </mxCell>
        <mxCell id="8CiNjuALpJsSW3Yr4W5U-181" value="" style="html=1;dashed=0;whitespace=wrap;fillColor=#2875E2;strokeColor=#ffffff;points=[[0.005,0.63,0],[0.1,0.2,0],[0.9,0.2,0],[0.5,0,0],[0.995,0.63,0],[0.72,0.99,0],[0.5,1,0],[0.28,0.99,0]];shape=mxgraph.kubernetes.icon;prIcon=ing;aspect=fixed;" vertex="1" parent="1">
          <mxGeometry x="2290" y="1005.6" width="30" height="28.8" as="geometry" />
        </mxCell>
        <mxCell id="8CiNjuALpJsSW3Yr4W5U-182" value="" style="html=1;dashed=0;whitespace=wrap;fillColor=#2875E2;strokeColor=#ffffff;points=[[0.005,0.63,0],[0.1,0.2,0],[0.9,0.2,0],[0.5,0,0],[0.995,0.63,0],[0.72,0.99,0],[0.5,1,0],[0.28,0.99,0]];shape=mxgraph.kubernetes.icon;prIcon=pod;aspect=fixed;" vertex="1" parent="1">
          <mxGeometry x="2370" y="1005.6" width="30" height="28.8" as="geometry" />
        </mxCell>
        <mxCell id="8CiNjuALpJsSW3Yr4W5U-183" value="" style="html=1;dashed=0;whitespace=wrap;fillColor=#2875E2;strokeColor=#ffffff;points=[[0.005,0.63,0],[0.1,0.2,0],[0.9,0.2,0],[0.5,0,0],[0.995,0.63,0],[0.72,0.99,0],[0.5,1,0],[0.28,0.99,0]];shape=mxgraph.kubernetes.icon;prIcon=svc;aspect=fixed;" vertex="1" parent="1">
          <mxGeometry x="2330" y="1005.6" width="30" height="28.8" as="geometry" />
        </mxCell>
        <mxCell id="8CiNjuALpJsSW3Yr4W5U-184" value="&lt;b&gt;PreProd/Production AKS&lt;/b&gt;" style="rounded=1;whiteSpace=wrap;html=1;horizontal=1;verticalAlign=top;" vertex="1" parent="1">
          <mxGeometry x="2710" y="379.4" width="860" height="530" as="geometry" />
        </mxCell>
        <mxCell id="8CiNjuALpJsSW3Yr4W5U-185" value="" style="aspect=fixed;html=1;points=[];align=center;image;fontSize=12;image=img/lib/mscae/Kubernetes.svg;" vertex="1" parent="1">
          <mxGeometry x="3125" y="410" width="30" height="28.8" as="geometry" />
        </mxCell>
        <mxCell id="8CiNjuALpJsSW3Yr4W5U-186" value="Non Namespace resources" style="rounded=1;whiteSpace=wrap;html=1;verticalAlign=top;" vertex="1" parent="1">
          <mxGeometry x="2730" y="449.4" width="140" height="270" as="geometry" />
        </mxCell>
        <mxCell id="8CiNjuALpJsSW3Yr4W5U-187" value="Priority Class (Low)" style="rounded=1;whiteSpace=wrap;html=1;verticalAlign=top;" vertex="1" parent="1">
          <mxGeometry x="2740" y="499.4" width="120" height="60" as="geometry" />
        </mxCell>
        <mxCell id="8CiNjuALpJsSW3Yr4W5U-188" value="" style="aspect=fixed;html=1;points=[];align=center;image;fontSize=12;image=img/lib/mscae/Kubernetes.svg;" vertex="1" parent="1">
          <mxGeometry x="2785" y="525.1999999999999" width="30" height="28.8" as="geometry" />
        </mxCell>
        <mxCell id="8CiNjuALpJsSW3Yr4W5U-189" value="&lt;font style=&quot;font-size: 11px&quot;&gt;Priority Class (Default)&lt;/font&gt;" style="rounded=1;whiteSpace=wrap;html=1;verticalAlign=top;" vertex="1" parent="1">
          <mxGeometry x="2740" y="574.4" width="120" height="60" as="geometry" />
        </mxCell>
        <mxCell id="8CiNjuALpJsSW3Yr4W5U-190" value="" style="aspect=fixed;html=1;points=[];align=center;image;fontSize=12;image=img/lib/mscae/Kubernetes.svg;" vertex="1" parent="1">
          <mxGeometry x="2785" y="600.1999999999999" width="30" height="28.8" as="geometry" />
        </mxCell>
        <mxCell id="8CiNjuALpJsSW3Yr4W5U-191" value="Priority Class (High)" style="rounded=1;whiteSpace=wrap;html=1;verticalAlign=top;" vertex="1" parent="1">
          <mxGeometry x="2740" y="648.1999999999999" width="120" height="60" as="geometry" />
        </mxCell>
        <mxCell id="8CiNjuALpJsSW3Yr4W5U-192" value="" style="aspect=fixed;html=1;points=[];align=center;image;fontSize=12;image=img/lib/mscae/Kubernetes.svg;" vertex="1" parent="1">
          <mxGeometry x="2785" y="674" width="30" height="28.8" as="geometry" />
        </mxCell>
        <mxCell id="8CiNjuALpJsSW3Yr4W5U-193" value="&lt;b&gt;ingress-basic&lt;br&gt;&lt;/b&gt;&amp;nbsp;Namespace" style="rounded=1;whiteSpace=wrap;html=1;verticalAlign=top;" vertex="1" parent="1">
          <mxGeometry x="2890" y="450.59999999999997" width="150" height="188.8" as="geometry" />
        </mxCell>
        <mxCell id="8CiNjuALpJsSW3Yr4W5U-194" value="NGINX Ingress Controller resources" style="rounded=1;whiteSpace=wrap;html=1;verticalAlign=top;" vertex="1" parent="1">
          <mxGeometry x="2905" y="530.6" width="120" height="98.8" as="geometry" />
        </mxCell>
        <mxCell id="8CiNjuALpJsSW3Yr4W5U-195" value="" style="html=1;dashed=0;whitespace=wrap;fillColor=#2875E2;strokeColor=#ffffff;points=[[0.005,0.63,0],[0.1,0.2,0],[0.9,0.2,0],[0.5,0,0],[0.995,0.63,0],[0.72,0.99,0],[0.5,1,0],[0.28,0.99,0]];shape=mxgraph.kubernetes.icon;prIcon=ns;aspect=fixed;" vertex="1" parent="1">
          <mxGeometry x="2950" y="495.2" width="30" height="28.8" as="geometry" />
        </mxCell>
        <mxCell id="8CiNjuALpJsSW3Yr4W5U-196" value="" style="html=1;dashed=0;whitespace=wrap;fillColor=#2875E2;strokeColor=#ffffff;points=[[0.005,0.63,0],[0.1,0.2,0],[0.9,0.2,0],[0.5,0,0],[0.995,0.63,0],[0.72,0.99,0],[0.5,1,0],[0.28,0.99,0]];shape=mxgraph.kubernetes.icon;prIcon=ing;aspect=fixed;" vertex="1" parent="1">
          <mxGeometry x="2910" y="585" width="30" height="28.8" as="geometry" />
        </mxCell>
        <mxCell id="8CiNjuALpJsSW3Yr4W5U-197" value="" style="html=1;dashed=0;whitespace=wrap;fillColor=#2875E2;strokeColor=#ffffff;points=[[0.005,0.63,0],[0.1,0.2,0],[0.9,0.2,0],[0.5,0,0],[0.995,0.63,0],[0.72,0.99,0],[0.5,1,0],[0.28,0.99,0]];shape=mxgraph.kubernetes.icon;prIcon=pod;aspect=fixed;" vertex="1" parent="1">
          <mxGeometry x="2990" y="585" width="30" height="28.8" as="geometry" />
        </mxCell>
        <mxCell id="8CiNjuALpJsSW3Yr4W5U-198" value="" style="html=1;dashed=0;whitespace=wrap;fillColor=#2875E2;strokeColor=#ffffff;points=[[0.005,0.63,0],[0.1,0.2,0],[0.9,0.2,0],[0.5,0,0],[0.995,0.63,0],[0.72,0.99,0],[0.5,1,0],[0.28,0.99,0]];shape=mxgraph.kubernetes.icon;prIcon=svc;aspect=fixed;" vertex="1" parent="1">
          <mxGeometry x="2950" y="585" width="30" height="28.8" as="geometry" />
        </mxCell>
        <mxCell id="8CiNjuALpJsSW3Yr4W5U-199" value="&lt;b&gt;aad-pod-identity&lt;br&gt;&lt;/b&gt;&amp;nbsp;Namespace" style="rounded=1;whiteSpace=wrap;html=1;verticalAlign=top;" vertex="1" parent="1">
          <mxGeometry x="3060" y="449.4" width="150" height="188.8" as="geometry" />
        </mxCell>
        <mxCell id="8CiNjuALpJsSW3Yr4W5U-200" value="Pod identity resources" style="rounded=1;whiteSpace=wrap;html=1;verticalAlign=top;" vertex="1" parent="1">
          <mxGeometry x="3075" y="529.4" width="120" height="98.8" as="geometry" />
        </mxCell>
        <mxCell id="8CiNjuALpJsSW3Yr4W5U-201" value="" style="html=1;dashed=0;whitespace=wrap;fillColor=#2875E2;strokeColor=#ffffff;points=[[0.005,0.63,0],[0.1,0.2,0],[0.9,0.2,0],[0.5,0,0],[0.995,0.63,0],[0.72,0.99,0],[0.5,1,0],[0.28,0.99,0]];shape=mxgraph.kubernetes.icon;prIcon=ns;aspect=fixed;" vertex="1" parent="1">
          <mxGeometry x="3120" y="494" width="30" height="28.8" as="geometry" />
        </mxCell>
        <mxCell id="8CiNjuALpJsSW3Yr4W5U-202" value="" style="html=1;dashed=0;whitespace=wrap;fillColor=#2875E2;strokeColor=#ffffff;points=[[0.005,0.63,0],[0.1,0.2,0],[0.9,0.2,0],[0.5,0,0],[0.995,0.63,0],[0.72,0.99,0],[0.5,1,0],[0.28,0.99,0]];shape=mxgraph.kubernetes.icon;prIcon=ing;aspect=fixed;" vertex="1" parent="1">
          <mxGeometry x="3080" y="583.8" width="30" height="28.8" as="geometry" />
        </mxCell>
        <mxCell id="8CiNjuALpJsSW3Yr4W5U-203" value="" style="html=1;dashed=0;whitespace=wrap;fillColor=#2875E2;strokeColor=#ffffff;points=[[0.005,0.63,0],[0.1,0.2,0],[0.9,0.2,0],[0.5,0,0],[0.995,0.63,0],[0.72,0.99,0],[0.5,1,0],[0.28,0.99,0]];shape=mxgraph.kubernetes.icon;prIcon=pod;aspect=fixed;" vertex="1" parent="1">
          <mxGeometry x="3160" y="583.8" width="30" height="28.8" as="geometry" />
        </mxCell>
        <mxCell id="8CiNjuALpJsSW3Yr4W5U-204" value="" style="html=1;dashed=0;whitespace=wrap;fillColor=#2875E2;strokeColor=#ffffff;points=[[0.005,0.63,0],[0.1,0.2,0],[0.9,0.2,0],[0.5,0,0],[0.995,0.63,0],[0.72,0.99,0],[0.5,1,0],[0.28,0.99,0]];shape=mxgraph.kubernetes.icon;prIcon=svc;aspect=fixed;" vertex="1" parent="1">
          <mxGeometry x="3120" y="583.8" width="30" height="28.8" as="geometry" />
        </mxCell>
        <mxCell id="8CiNjuALpJsSW3Yr4W5U-205" value="&lt;b&gt;linkerd&lt;br&gt;&lt;/b&gt;&amp;nbsp;Namespace" style="rounded=1;whiteSpace=wrap;html=1;verticalAlign=top;" vertex="1" parent="1">
          <mxGeometry x="3230" y="450.59999999999997" width="150" height="188.8" as="geometry" />
        </mxCell>
        <mxCell id="8CiNjuALpJsSW3Yr4W5U-206" value="Linkerd resources" style="rounded=1;whiteSpace=wrap;html=1;verticalAlign=top;" vertex="1" parent="1">
          <mxGeometry x="3245" y="530.6" width="120" height="98.8" as="geometry" />
        </mxCell>
        <mxCell id="8CiNjuALpJsSW3Yr4W5U-207" value="" style="html=1;dashed=0;whitespace=wrap;fillColor=#2875E2;strokeColor=#ffffff;points=[[0.005,0.63,0],[0.1,0.2,0],[0.9,0.2,0],[0.5,0,0],[0.995,0.63,0],[0.72,0.99,0],[0.5,1,0],[0.28,0.99,0]];shape=mxgraph.kubernetes.icon;prIcon=ns;aspect=fixed;" vertex="1" parent="1">
          <mxGeometry x="3290" y="495.2" width="30" height="28.8" as="geometry" />
        </mxCell>
        <mxCell id="8CiNjuALpJsSW3Yr4W5U-208" value="" style="html=1;dashed=0;whitespace=wrap;fillColor=#2875E2;strokeColor=#ffffff;points=[[0.005,0.63,0],[0.1,0.2,0],[0.9,0.2,0],[0.5,0,0],[0.995,0.63,0],[0.72,0.99,0],[0.5,1,0],[0.28,0.99,0]];shape=mxgraph.kubernetes.icon;prIcon=ing;aspect=fixed;" vertex="1" parent="1">
          <mxGeometry x="3250" y="585" width="30" height="28.8" as="geometry" />
        </mxCell>
        <mxCell id="8CiNjuALpJsSW3Yr4W5U-209" value="" style="html=1;dashed=0;whitespace=wrap;fillColor=#2875E2;strokeColor=#ffffff;points=[[0.005,0.63,0],[0.1,0.2,0],[0.9,0.2,0],[0.5,0,0],[0.995,0.63,0],[0.72,0.99,0],[0.5,1,0],[0.28,0.99,0]];shape=mxgraph.kubernetes.icon;prIcon=pod;aspect=fixed;" vertex="1" parent="1">
          <mxGeometry x="3330" y="585" width="30" height="28.8" as="geometry" />
        </mxCell>
        <mxCell id="8CiNjuALpJsSW3Yr4W5U-210" value="" style="html=1;dashed=0;whitespace=wrap;fillColor=#2875E2;strokeColor=#ffffff;points=[[0.005,0.63,0],[0.1,0.2,0],[0.9,0.2,0],[0.5,0,0],[0.995,0.63,0],[0.72,0.99,0],[0.5,1,0],[0.28,0.99,0]];shape=mxgraph.kubernetes.icon;prIcon=svc;aspect=fixed;" vertex="1" parent="1">
          <mxGeometry x="3290" y="585" width="30" height="28.8" as="geometry" />
        </mxCell>
        <mxCell id="8CiNjuALpJsSW3Yr4W5U-211" value="&lt;b&gt;ffc-pr&lt;br&gt;&lt;/b&gt;&amp;nbsp;Namespace" style="rounded=1;whiteSpace=wrap;html=1;verticalAlign=top;" vertex="1" parent="1">
          <mxGeometry x="2890" y="665" width="150" height="188.8" as="geometry" />
        </mxCell>
        <mxCell id="8CiNjuALpJsSW3Yr4W5U-212" value="PRC resources" style="rounded=1;whiteSpace=wrap;html=1;verticalAlign=top;" vertex="1" parent="1">
          <mxGeometry x="2905" y="745" width="120" height="98.8" as="geometry" />
        </mxCell>
        <mxCell id="8CiNjuALpJsSW3Yr4W5U-213" value="" style="html=1;dashed=0;whitespace=wrap;fillColor=#2875E2;strokeColor=#ffffff;points=[[0.005,0.63,0],[0.1,0.2,0],[0.9,0.2,0],[0.5,0,0],[0.995,0.63,0],[0.72,0.99,0],[0.5,1,0],[0.28,0.99,0]];shape=mxgraph.kubernetes.icon;prIcon=ns;aspect=fixed;" vertex="1" parent="1">
          <mxGeometry x="2950" y="709.6" width="30" height="28.8" as="geometry" />
        </mxCell>
        <mxCell id="8CiNjuALpJsSW3Yr4W5U-214" value="" style="html=1;dashed=0;whitespace=wrap;fillColor=#2875E2;strokeColor=#ffffff;points=[[0.005,0.63,0],[0.1,0.2,0],[0.9,0.2,0],[0.5,0,0],[0.995,0.63,0],[0.72,0.99,0],[0.5,1,0],[0.28,0.99,0]];shape=mxgraph.kubernetes.icon;prIcon=ing;aspect=fixed;" vertex="1" parent="1">
          <mxGeometry x="2910" y="799.4" width="30" height="28.8" as="geometry" />
        </mxCell>
        <mxCell id="8CiNjuALpJsSW3Yr4W5U-215" value="" style="html=1;dashed=0;whitespace=wrap;fillColor=#2875E2;strokeColor=#ffffff;points=[[0.005,0.63,0],[0.1,0.2,0],[0.9,0.2,0],[0.5,0,0],[0.995,0.63,0],[0.72,0.99,0],[0.5,1,0],[0.28,0.99,0]];shape=mxgraph.kubernetes.icon;prIcon=pod;aspect=fixed;" vertex="1" parent="1">
          <mxGeometry x="2990" y="799.4" width="30" height="28.8" as="geometry" />
        </mxCell>
        <mxCell id="8CiNjuALpJsSW3Yr4W5U-216" value="" style="html=1;dashed=0;whitespace=wrap;fillColor=#2875E2;strokeColor=#ffffff;points=[[0.005,0.63,0],[0.1,0.2,0],[0.9,0.2,0],[0.5,0,0],[0.995,0.63,0],[0.72,0.99,0],[0.5,1,0],[0.28,0.99,0]];shape=mxgraph.kubernetes.icon;prIcon=svc;aspect=fixed;" vertex="1" parent="1">
          <mxGeometry x="2950" y="799.4" width="30" height="28.8" as="geometry" />
        </mxCell>
        <mxCell id="8CiNjuALpJsSW3Yr4W5U-217" value="&lt;b&gt;ffc-demo&lt;br&gt;&lt;/b&gt;&amp;nbsp;Namespace" style="rounded=1;whiteSpace=wrap;html=1;verticalAlign=top;" vertex="1" parent="1">
          <mxGeometry x="3060" y="665" width="150" height="188.8" as="geometry" />
        </mxCell>
        <mxCell id="8CiNjuALpJsSW3Yr4W5U-218" value="Demo service resources" style="rounded=1;whiteSpace=wrap;html=1;verticalAlign=top;" vertex="1" parent="1">
          <mxGeometry x="3075" y="745" width="120" height="98.8" as="geometry" />
        </mxCell>
        <mxCell id="8CiNjuALpJsSW3Yr4W5U-219" value="" style="html=1;dashed=0;whitespace=wrap;fillColor=#2875E2;strokeColor=#ffffff;points=[[0.005,0.63,0],[0.1,0.2,0],[0.9,0.2,0],[0.5,0,0],[0.995,0.63,0],[0.72,0.99,0],[0.5,1,0],[0.28,0.99,0]];shape=mxgraph.kubernetes.icon;prIcon=ns;aspect=fixed;" vertex="1" parent="1">
          <mxGeometry x="3120" y="709.5999999999999" width="30" height="28.8" as="geometry" />
        </mxCell>
        <mxCell id="8CiNjuALpJsSW3Yr4W5U-220" value="" style="html=1;dashed=0;whitespace=wrap;fillColor=#2875E2;strokeColor=#ffffff;points=[[0.005,0.63,0],[0.1,0.2,0],[0.9,0.2,0],[0.5,0,0],[0.995,0.63,0],[0.72,0.99,0],[0.5,1,0],[0.28,0.99,0]];shape=mxgraph.kubernetes.icon;prIcon=ing;aspect=fixed;" vertex="1" parent="1">
          <mxGeometry x="3080" y="799.4" width="30" height="28.8" as="geometry" />
        </mxCell>
        <mxCell id="8CiNjuALpJsSW3Yr4W5U-221" value="" style="html=1;dashed=0;whitespace=wrap;fillColor=#2875E2;strokeColor=#ffffff;points=[[0.005,0.63,0],[0.1,0.2,0],[0.9,0.2,0],[0.5,0,0],[0.995,0.63,0],[0.72,0.99,0],[0.5,1,0],[0.28,0.99,0]];shape=mxgraph.kubernetes.icon;prIcon=pod;aspect=fixed;" vertex="1" parent="1">
          <mxGeometry x="3160" y="799.4" width="30" height="28.8" as="geometry" />
        </mxCell>
        <mxCell id="8CiNjuALpJsSW3Yr4W5U-222" value="" style="html=1;dashed=0;whitespace=wrap;fillColor=#2875E2;strokeColor=#ffffff;points=[[0.005,0.63,0],[0.1,0.2,0],[0.9,0.2,0],[0.5,0,0],[0.995,0.63,0],[0.72,0.99,0],[0.5,1,0],[0.28,0.99,0]];shape=mxgraph.kubernetes.icon;prIcon=svc;aspect=fixed;" vertex="1" parent="1">
          <mxGeometry x="3120" y="799.4" width="30" height="28.8" as="geometry" />
        </mxCell>
        <mxCell id="8CiNjuALpJsSW3Yr4W5U-223" value="&lt;b&gt;ffc-grants&lt;br&gt;&lt;/b&gt;&amp;nbsp;Namespace" style="rounded=1;whiteSpace=wrap;html=1;verticalAlign=top;" vertex="1" parent="1">
          <mxGeometry x="3230" y="665" width="150" height="188.8" as="geometry" />
        </mxCell>
        <mxCell id="8CiNjuALpJsSW3Yr4W5U-224" value="Grants service resources" style="rounded=1;whiteSpace=wrap;html=1;verticalAlign=top;" vertex="1" parent="1">
          <mxGeometry x="3245" y="745" width="120" height="98.8" as="geometry" />
        </mxCell>
        <mxCell id="8CiNjuALpJsSW3Yr4W5U-225" value="" style="html=1;dashed=0;whitespace=wrap;fillColor=#2875E2;strokeColor=#ffffff;points=[[0.005,0.63,0],[0.1,0.2,0],[0.9,0.2,0],[0.5,0,0],[0.995,0.63,0],[0.72,0.99,0],[0.5,1,0],[0.28,0.99,0]];shape=mxgraph.kubernetes.icon;prIcon=ns;aspect=fixed;" vertex="1" parent="1">
          <mxGeometry x="3290" y="709.5999999999999" width="30" height="28.8" as="geometry" />
        </mxCell>
        <mxCell id="8CiNjuALpJsSW3Yr4W5U-226" value="" style="html=1;dashed=0;whitespace=wrap;fillColor=#2875E2;strokeColor=#ffffff;points=[[0.005,0.63,0],[0.1,0.2,0],[0.9,0.2,0],[0.5,0,0],[0.995,0.63,0],[0.72,0.99,0],[0.5,1,0],[0.28,0.99,0]];shape=mxgraph.kubernetes.icon;prIcon=ing;aspect=fixed;" vertex="1" parent="1">
          <mxGeometry x="3250" y="799.4" width="30" height="28.8" as="geometry" />
        </mxCell>
        <mxCell id="8CiNjuALpJsSW3Yr4W5U-227" value="" style="html=1;dashed=0;whitespace=wrap;fillColor=#2875E2;strokeColor=#ffffff;points=[[0.005,0.63,0],[0.1,0.2,0],[0.9,0.2,0],[0.5,0,0],[0.995,0.63,0],[0.72,0.99,0],[0.5,1,0],[0.28,0.99,0]];shape=mxgraph.kubernetes.icon;prIcon=pod;aspect=fixed;" vertex="1" parent="1">
          <mxGeometry x="3330" y="799.4" width="30" height="28.8" as="geometry" />
        </mxCell>
        <mxCell id="8CiNjuALpJsSW3Yr4W5U-228" value="" style="html=1;dashed=0;whitespace=wrap;fillColor=#2875E2;strokeColor=#ffffff;points=[[0.005,0.63,0],[0.1,0.2,0],[0.9,0.2,0],[0.5,0,0],[0.995,0.63,0],[0.72,0.99,0],[0.5,1,0],[0.28,0.99,0]];shape=mxgraph.kubernetes.icon;prIcon=svc;aspect=fixed;" vertex="1" parent="1">
          <mxGeometry x="3290" y="799.4" width="30" height="28.8" as="geometry" />
        </mxCell>
        <mxCell id="8CiNjuALpJsSW3Yr4W5U-250" style="edgeStyle=orthogonalEdgeStyle;rounded=0;orthogonalLoop=1;jettySize=auto;html=1;entryX=0.5;entryY=0;entryDx=0;entryDy=0;exitX=0;exitY=0.5;exitDx=0;exitDy=0;" edge="1" parent="1" source="8CiNjuALpJsSW3Yr4W5U-247" target="8CiNjuALpJsSW3Yr4W5U-109">
          <mxGeometry relative="1" as="geometry" />
        </mxCell>
        <mxCell id="8CiNjuALpJsSW3Yr4W5U-263" style="edgeStyle=orthogonalEdgeStyle;rounded=0;orthogonalLoop=1;jettySize=auto;html=1;exitX=1;exitY=0.5;exitDx=0;exitDy=0;" edge="1" parent="1" source="8CiNjuALpJsSW3Yr4W5U-247" target="8CiNjuALpJsSW3Yr4W5U-184">
          <mxGeometry relative="1" as="geometry" />
        </mxCell>
        <mxCell id="8CiNjuALpJsSW3Yr4W5U-247" value="Shared Azure Container Registry" style="rounded=1;whiteSpace=wrap;html=1;verticalAlign=top;" vertex="1" parent="1">
          <mxGeometry x="2550" y="214.4" width="190" height="100" as="geometry" />
        </mxCell>
        <mxCell id="8CiNjuALpJsSW3Yr4W5U-249" value="" style="aspect=fixed;html=1;points=[];align=center;image;fontSize=12;image=img/lib/azure2/containers/Container_Registries.svg;" vertex="1" parent="1">
          <mxGeometry x="2614.6" y="249.85" width="60.8" height="54.55" as="geometry" />
        </mxCell>
        <mxCell id="8CiNjuALpJsSW3Yr4W5U-251" value="&lt;b&gt;logic-monitor&lt;br&gt;&lt;/b&gt;&amp;nbsp;Namespace" style="rounded=1;whiteSpace=wrap;html=1;verticalAlign=top;" vertex="1" parent="1">
          <mxGeometry x="2440" y="451.2" width="150" height="188.8" as="geometry" />
        </mxCell>
        <mxCell id="8CiNjuALpJsSW3Yr4W5U-252" value="LogicMonitor resources" style="rounded=1;whiteSpace=wrap;html=1;verticalAlign=top;" vertex="1" parent="1">
          <mxGeometry x="2455" y="531.2" width="120" height="98.8" as="geometry" />
        </mxCell>
        <mxCell id="8CiNjuALpJsSW3Yr4W5U-253" value="" style="html=1;dashed=0;whitespace=wrap;fillColor=#2875E2;strokeColor=#ffffff;points=[[0.005,0.63,0],[0.1,0.2,0],[0.9,0.2,0],[0.5,0,0],[0.995,0.63,0],[0.72,0.99,0],[0.5,1,0],[0.28,0.99,0]];shape=mxgraph.kubernetes.icon;prIcon=ns;aspect=fixed;" vertex="1" parent="1">
          <mxGeometry x="2500" y="495.8" width="30" height="28.8" as="geometry" />
        </mxCell>
        <mxCell id="8CiNjuALpJsSW3Yr4W5U-254" value="" style="html=1;dashed=0;whitespace=wrap;fillColor=#2875E2;strokeColor=#ffffff;points=[[0.005,0.63,0],[0.1,0.2,0],[0.9,0.2,0],[0.5,0,0],[0.995,0.63,0],[0.72,0.99,0],[0.5,1,0],[0.28,0.99,0]];shape=mxgraph.kubernetes.icon;prIcon=ing;aspect=fixed;" vertex="1" parent="1">
          <mxGeometry x="2460" y="585.6" width="30" height="28.8" as="geometry" />
        </mxCell>
        <mxCell id="8CiNjuALpJsSW3Yr4W5U-255" value="" style="html=1;dashed=0;whitespace=wrap;fillColor=#2875E2;strokeColor=#ffffff;points=[[0.005,0.63,0],[0.1,0.2,0],[0.9,0.2,0],[0.5,0,0],[0.995,0.63,0],[0.72,0.99,0],[0.5,1,0],[0.28,0.99,0]];shape=mxgraph.kubernetes.icon;prIcon=pod;aspect=fixed;" vertex="1" parent="1">
          <mxGeometry x="2540" y="585.6" width="30" height="28.8" as="geometry" />
        </mxCell>
        <mxCell id="8CiNjuALpJsSW3Yr4W5U-256" value="" style="html=1;dashed=0;whitespace=wrap;fillColor=#2875E2;strokeColor=#ffffff;points=[[0.005,0.63,0],[0.1,0.2,0],[0.9,0.2,0],[0.5,0,0],[0.995,0.63,0],[0.72,0.99,0],[0.5,1,0],[0.28,0.99,0]];shape=mxgraph.kubernetes.icon;prIcon=svc;aspect=fixed;" vertex="1" parent="1">
          <mxGeometry x="2500" y="585.6" width="30" height="28.8" as="geometry" />
        </mxCell>
        <mxCell id="8CiNjuALpJsSW3Yr4W5U-257" value="&lt;b&gt;logic-monitor&lt;br&gt;&lt;/b&gt;&amp;nbsp;Namespace" style="rounded=1;whiteSpace=wrap;html=1;verticalAlign=top;" vertex="1" parent="1">
          <mxGeometry x="3400" y="450" width="150" height="188.8" as="geometry" />
        </mxCell>
        <mxCell id="8CiNjuALpJsSW3Yr4W5U-258" value="LogicMonitor resources" style="rounded=1;whiteSpace=wrap;html=1;verticalAlign=top;" vertex="1" parent="1">
          <mxGeometry x="3415" y="530" width="120" height="98.8" as="geometry" />
        </mxCell>
        <mxCell id="8CiNjuALpJsSW3Yr4W5U-259" value="" style="html=1;dashed=0;whitespace=wrap;fillColor=#2875E2;strokeColor=#ffffff;points=[[0.005,0.63,0],[0.1,0.2,0],[0.9,0.2,0],[0.5,0,0],[0.995,0.63,0],[0.72,0.99,0],[0.5,1,0],[0.28,0.99,0]];shape=mxgraph.kubernetes.icon;prIcon=ns;aspect=fixed;" vertex="1" parent="1">
          <mxGeometry x="3460" y="494.6" width="30" height="28.8" as="geometry" />
        </mxCell>
        <mxCell id="8CiNjuALpJsSW3Yr4W5U-260" value="" style="html=1;dashed=0;whitespace=wrap;fillColor=#2875E2;strokeColor=#ffffff;points=[[0.005,0.63,0],[0.1,0.2,0],[0.9,0.2,0],[0.5,0,0],[0.995,0.63,0],[0.72,0.99,0],[0.5,1,0],[0.28,0.99,0]];shape=mxgraph.kubernetes.icon;prIcon=ing;aspect=fixed;" vertex="1" parent="1">
          <mxGeometry x="3420" y="584.4" width="30" height="28.8" as="geometry" />
        </mxCell>
        <mxCell id="8CiNjuALpJsSW3Yr4W5U-261" value="" style="html=1;dashed=0;whitespace=wrap;fillColor=#2875E2;strokeColor=#ffffff;points=[[0.005,0.63,0],[0.1,0.2,0],[0.9,0.2,0],[0.5,0,0],[0.995,0.63,0],[0.72,0.99,0],[0.5,1,0],[0.28,0.99,0]];shape=mxgraph.kubernetes.icon;prIcon=pod;aspect=fixed;" vertex="1" parent="1">
          <mxGeometry x="3500" y="584.4" width="30" height="28.8" as="geometry" />
        </mxCell>
        <mxCell id="8CiNjuALpJsSW3Yr4W5U-262" value="" style="html=1;dashed=0;whitespace=wrap;fillColor=#2875E2;strokeColor=#ffffff;points=[[0.005,0.63,0],[0.1,0.2,0],[0.9,0.2,0],[0.5,0,0],[0.995,0.63,0],[0.72,0.99,0],[0.5,1,0],[0.28,0.99,0]];shape=mxgraph.kubernetes.icon;prIcon=svc;aspect=fixed;" vertex="1" parent="1">
          <mxGeometry x="3460" y="584.4" width="30" height="28.8" as="geometry" />
        </mxCell>
        <mxCell id="8CiNjuALpJsSW3Yr4W5U-264" value="1" style="ellipse;whiteSpace=wrap;html=1;aspect=fixed;strokeWidth=2;fontFamily=Tahoma;spacingBottom=4;spacingRight=2;strokeColor=#d3d3d3;" vertex="1" parent="1">
          <mxGeometry x="1780" y="475.8" width="20" height="20" as="geometry" />
        </mxCell>
        <mxCell id="8CiNjuALpJsSW3Yr4W5U-265" value="2" style="ellipse;whiteSpace=wrap;html=1;aspect=fixed;strokeWidth=2;fontFamily=Tahoma;spacingBottom=4;spacingRight=2;strokeColor=#d3d3d3;" vertex="1" parent="1">
          <mxGeometry x="1945" y="498" width="20" height="20" as="geometry" />
        </mxCell>
        <mxCell id="8CiNjuALpJsSW3Yr4W5U-266" value="3" style="ellipse;whiteSpace=wrap;html=1;aspect=fixed;strokeWidth=2;fontFamily=Tahoma;spacingBottom=4;spacingRight=2;strokeColor=#d3d3d3;" vertex="1" parent="1">
          <mxGeometry x="2120" y="500" width="20" height="20" as="geometry" />
        </mxCell>
        <mxCell id="8CiNjuALpJsSW3Yr4W5U-267" value="4" style="ellipse;whiteSpace=wrap;html=1;aspect=fixed;strokeWidth=2;fontFamily=Tahoma;spacingBottom=4;spacingRight=2;strokeColor=#d3d3d3;" vertex="1" parent="1">
          <mxGeometry x="2295" y="503" width="20" height="20" as="geometry" />
        </mxCell>
        <mxCell id="8CiNjuALpJsSW3Yr4W5U-268" value="5" style="ellipse;whiteSpace=wrap;html=1;aspect=fixed;strokeWidth=2;fontFamily=Tahoma;spacingBottom=4;spacingRight=2;strokeColor=#d3d3d3;" vertex="1" parent="1">
          <mxGeometry x="2465" y="503" width="20" height="20" as="geometry" />
        </mxCell>
        <mxCell id="8CiNjuALpJsSW3Yr4W5U-269" value="6" style="ellipse;whiteSpace=wrap;html=1;aspect=fixed;strokeWidth=2;fontFamily=Tahoma;spacingBottom=4;spacingRight=2;strokeColor=#d3d3d3;" vertex="1" parent="1">
          <mxGeometry x="1950" y="708" width="20" height="20" as="geometry" />
        </mxCell>
      </root>
    </mxGraphModel>
  </diagram>
</mxfile>
